<svg xmlns="http://www.w3.org/2000/svg" xmlns:xlink="http://www.w3.org/1999/xlink" width="500" zoomAndPan="magnify" viewBox="0 0 375 374.999991" height="500" preserveAspectRatio="xMidYMid meet" version="1.0"><defs><g/><clipPath id="d63d5f7e1e"><path d="M 0 0 L 373.0625 0 L 373.0625 374.644531 L 0 374.644531 Z M 0 0 " clip-rule="nonzero"/></clipPath><clipPath id="204fe4c9ef"><path d="M 185.738281 0 C 82.285156 0 -1.582031 83.867188 -1.582031 187.324219 C -1.582031 290.777344 82.285156 374.644531 185.738281 374.644531 C 289.195312 374.644531 373.0625 290.777344 373.0625 187.324219 C 373.0625 83.867188 289.195312 0 185.738281 0 Z M 185.738281 0 " clip-rule="nonzero"/></clipPath><clipPath id="874188a3fd"><path d="M 10.640625 161.917969 L 364.175781 161.917969 L 364.175781 212.371094 L 10.640625 212.371094 Z M 10.640625 161.917969 " clip-rule="nonzero"/></clipPath><clipPath id="1e103654bd"><path d="M 211.90625 90 L 259 90 L 259 119.171875 L 211.90625 119.171875 Z M 211.90625 90 " clip-rule="nonzero"/></clipPath></defs><g clip-path="url(#d63d5f7e1e)"><g clip-path="url(#204fe4c9ef)"><path fill="#ffffff" d="M -1.582031 0 L 373.0625 0 L 373.0625 374.644531 L -1.582031 374.644531 Z M -1.582031 0 " fill-opacity="1" fill-rule="nonzero"/></g></g><g fill="#473c38" fill-opacity="1"><g transform="translate(27.814039, 258.720635)"><g><path d="M 2.988281 -136.410156 C 21.347656 -136.410156 24.335938 -133.847656 24.335938 -117.835938 L 24.335938 -23.480469 C 24.335938 -7.472656 21.347656 -4.910156 2.988281 -4.910156 L 2.988281 0 L 93.925781 0 C 134.488281 0 158.609375 -28.820312 158.609375 -71.300781 C 158.609375 -113.78125 134.488281 -141.316406 93.925781 -141.316406 L 2.988281 -141.316406 Z M 62.121094 -20.921875 L 62.121094 -136.410156 L 84.109375 -136.410156 C 105.027344 -136.410156 118.691406 -105.242188 118.691406 -71.300781 C 118.691406 -37.359375 105.027344 -4.910156 84.109375 -4.910156 L 73.648438 -4.910156 C 64.683594 -4.910156 62.121094 -8.324219 62.121094 -20.921875 Z M 62.121094 -20.921875 "/></g></g></g><g fill="#473c38" fill-opacity="1"><g transform="translate(192.827473, 258.720635)"><g><path d="M 1.28125 -93.074219 L 6.191406 -93.074219 C 16.652344 -124.242188 29.246094 -136.410156 44.1875 -136.410156 C 54.222656 -136.410156 58.277344 -131.070312 58.277344 -117.835938 L 58.277344 -23.480469 C 58.277344 -7.472656 55.289062 -4.910156 36.929688 -4.910156 L 36.929688 0 L 117.835938 0 L 117.835938 -4.910156 C 99.476562 -4.910156 96.0625 -7.472656 96.0625 -23.480469 L 96.0625 -117.835938 C 96.0625 -131.070312 100.117188 -136.410156 110.152344 -136.410156 C 125.09375 -136.410156 137.6875 -124.242188 148.148438 -93.074219 L 153.058594 -93.074219 L 147.082031 -141.316406 L 7.257812 -141.316406 Z M 1.28125 -93.074219 "/></g></g></g><g clip-path="url(#874188a3fd)"><path fill="#ffffff" d="M 10.640625 161.917969 L 364.207031 161.917969 L 364.207031 212.371094 L 10.640625 212.371094 Z M 10.640625 161.917969 " fill-opacity="1" fill-rule="nonzero"/></g><g clip-path="url(#1e103654bd)"><path fill="#473c38" d="M 243.683594 106.566406 C 243.410156 106.777344 243.148438 106.964844 242.914062 107.164062 C 242.613281 106.890625 242.339844 106.617188 242.066406 106.34375 C 241.816406 106.082031 241.566406 105.820312 241.332031 105.546875 C 241.519531 105.308594 241.71875 105.046875 241.929688 104.773438 C 242.191406 105.074219 242.464844 105.371094 242.75 105.660156 C 243.050781 105.957031 243.359375 106.269531 243.683594 106.566406 M 227.914062 118.03125 C 228.4375 117.546875 228.921875 116.984375 229.296875 116.351562 C 230.902344 113.613281 229.65625 109.503906 226.21875 109.195312 C 223.730469 108.96875 220.132812 111.097656 220.878906 113.875 C 221.664062 111.65625 223.695312 109.867188 226.144531 110.089844 C 228.882812 110.339844 229.78125 113.722656 228.511719 115.890625 C 228 116.761719 227.230469 117.472656 226.496094 118.03125 L 211.90625 118.03125 L 211.90625 131.261719 L 258.957031 131.261719 L 258.957031 118.03125 L 232.792969 118.03125 L 240.449219 110.363281 C 240.570312 109.679688 241.109375 108.660156 242.761719 107.277344 C 242.476562 107.015625 242.191406 106.742188 241.929688 106.457031 C 241.679688 106.195312 241.445312 105.933594 241.207031 105.671875 C 239.777344 107.386719 238.71875 107.910156 238.03125 108.011719 L 228.023438 118.019531 L 227.914062 118.019531 Z M 257.699219 94.542969 C 257.414062 95.414062 255.285156 96.507812 252.921875 98.6875 C 251.425781 100.058594 250.105469 102.273438 248.5625 103.46875 C 246.25 105.273438 244.019531 106.367188 243.859375 106.441406 C 243.523438 106.144531 243.199219 105.832031 242.886719 105.507812 C 242.601562 105.210938 242.316406 104.898438 242.039062 104.589844 C 242.191406 104.289062 243.273438 102.136719 245.003906 99.90625 C 246.199219 98.375 248.414062 97.046875 249.785156 95.550781 C 251.949219 93.1875 252.859375 91.109375 253.929688 90.773438 C 256.628906 89.925781 258.570312 91.84375 257.699219 94.542969 Z M 257.699219 94.542969 " fill-opacity="1" fill-rule="evenodd"/></g><g fill="#473c38" fill-opacity="1"><g transform="translate(93.842023, 198.13466)"><g><path d="M 1.515625 0 L 11.410156 0 C 15.65625 0 23.578125 -1.476562 23.578125 -12.507812 C 23.578125 -23.5 15.65625 -25.019531 11.410156 -25.019531 L 1.515625 -25.019531 L 1.515625 -24.375 C 3.070312 -24.375 3.410156 -23.617188 3.410156 -21.339844 L 3.410156 -3.675781 C 3.410156 -1.402344 3.070312 -0.644531 1.515625 -0.644531 Z M 6.066406 -1.402344 L 6.066406 -23.617188 L 10.878906 -23.617188 C 17.210938 -23.617188 20.925781 -20.429688 20.925781 -12.507812 C 20.925781 -4.585938 17.210938 -1.402344 10.878906 -1.402344 Z M 6.066406 -1.402344 "/></g></g></g><g fill="#473c38" fill-opacity="1"><g transform="translate(121.055856, 198.13466)"><g><path d="M 1.515625 0 L 7.960938 0 L 7.960938 -0.644531 C 6.40625 -0.644531 6.066406 -1.402344 6.066406 -3.675781 L 6.066406 -13.265625 L 6.558594 -13.265625 C 11.75 -13.265625 13.722656 -12.207031 15.046875 -6.519531 C 16.414062 -0.683594 19.671875 0 23.765625 0 L 23.765625 -0.644531 C 21 -0.644531 19.066406 -2.121094 17.703125 -7.582031 C 16.945312 -10.726562 15.351562 -12.472656 13.34375 -13.457031 C 16.070312 -13.875 18.613281 -15.085938 18.613281 -19.105469 C 18.613281 -24.640625 13.53125 -25.019531 10.273438 -25.019531 L 1.515625 -25.019531 L 1.515625 -24.375 C 3.070312 -24.375 3.410156 -23.617188 3.410156 -21.339844 L 3.410156 -3.675781 C 3.410156 -1.402344 3.070312 -0.644531 1.515625 -0.644531 Z M 6.066406 -14.632812 L 6.066406 -23.617188 L 10.765625 -23.617188 C 14.367188 -23.617188 15.957031 -21.984375 15.957031 -19.066406 C 15.957031 -16.109375 14.367188 -14.632812 10.765625 -14.632812 Z M 6.066406 -14.632812 "/></g></g></g><g fill="#473c38" fill-opacity="1"><g transform="translate(147.322151, 198.13466)"><g><path d="M 13.570312 0.378906 C 21.304688 0.378906 23.234375 -4.320312 23.386719 -12.699219 L 23.425781 -21.339844 C 23.425781 -23.617188 23.730469 -24.375 25.320312 -24.375 L 25.320312 -25.019531 L 20.164062 -25.019531 L 20.164062 -24.375 C 21.71875 -24.375 22.0625 -23.617188 22.0625 -21.339844 L 22.023438 -12.699219 C 21.871094 -5.269531 20.015625 -1.023438 14.023438 -1.023438 C 8 -1.023438 5.648438 -4.433594 5.648438 -12.699219 L 5.6875 -21.339844 C 5.6875 -23.617188 6.027344 -24.375 7.582031 -24.375 L 7.582031 -25.019531 L 1.136719 -25.019531 L 1.136719 -24.375 C 2.691406 -24.375 3.03125 -23.617188 3.03125 -21.339844 L 3.03125 -12.699219 C 3.070312 -4.207031 5.308594 0.378906 13.570312 0.378906 Z M 13.570312 0.378906 "/></g></g></g><g fill="#473c38" fill-opacity="1"><g transform="translate(175.900448, 198.13466)"><g><path d="M 8.640625 0 L 15.085938 0 L 15.085938 -0.644531 C 13.53125 -0.644531 13.191406 -1.402344 13.191406 -3.675781 L 13.191406 -23.617188 L 18.382812 -23.617188 C 20.695312 -23.617188 21.492188 -22.894531 21.984375 -19.785156 L 22.59375 -19.863281 L 21.949219 -24.5625 L 21.871094 -25.019531 L 1.855469 -25.019531 L 1.78125 -24.5625 L 1.136719 -19.863281 L 1.742188 -19.785156 C 2.238281 -22.894531 3.070312 -23.617188 5.34375 -23.617188 L 10.539062 -23.617188 L 10.539062 -3.675781 C 10.539062 -1.402344 10.195312 -0.644531 8.640625 -0.644531 Z M 8.640625 0 "/></g></g></g><g fill="#473c38" fill-opacity="1"><g transform="translate(201.749816, 198.13466)"><g><path d="M 1.515625 0 L 18.800781 0 L 18.878906 -0.453125 L 19.523438 -5.15625 L 18.914062 -5.230469 C 18.421875 -2.121094 17.589844 -1.402344 15.3125 -1.402344 L 6.066406 -1.402344 L 6.066406 -12.015625 L 12.242188 -12.015625 C 14.519531 -12.015625 15.238281 -11.675781 15.238281 -10.121094 L 15.882812 -10.121094 L 15.882812 -15.277344 L 15.238281 -15.277344 C 15.238281 -13.722656 14.519531 -13.378906 12.242188 -13.378906 L 6.066406 -13.378906 L 6.066406 -23.617188 L 14.933594 -23.617188 C 17.210938 -23.617188 18.042969 -22.894531 18.535156 -19.785156 L 19.140625 -19.863281 L 18.5 -24.5625 L 18.421875 -25.019531 L 1.515625 -25.019531 L 1.515625 -24.375 C 3.070312 -24.375 3.410156 -23.617188 3.410156 -21.339844 L 3.410156 -3.675781 C 3.410156 -1.402344 3.070312 -0.644531 1.515625 -0.644531 Z M 1.515625 0 "/></g></g></g><g fill="#473c38" fill-opacity="1"><g transform="translate(224.908159, 198.13466)"><g><path d="M 12.621094 0.378906 C 18.914062 0.378906 22.628906 -2.878906 22.441406 -9.402344 L 19.785156 -8.640625 C 20.164062 -3.601562 17.132812 -1.023438 12.621094 -1.023438 C 7.125 -1.023438 4.167969 -5.308594 4.167969 -12.507812 C 4.167969 -19.710938 7.503906 -23.996094 13 -23.996094 C 17.132812 -23.996094 20.164062 -21.417969 19.785156 -16.753906 L 22.441406 -15.996094 C 22.628906 -22.136719 18.914062 -25.398438 13 -25.398438 C 5.800781 -25.398438 1.515625 -20.660156 1.515625 -12.507812 C 1.515625 -4.359375 5.421875 0.378906 12.621094 0.378906 Z M 12.621094 0.378906 "/></g></g></g><g fill="#473c38" fill-opacity="1"><g transform="translate(250.98494, 198.13466)"><g><path d="M 1.515625 0 L 7.960938 0 L 7.960938 -0.644531 C 6.40625 -0.644531 6.066406 -1.402344 6.066406 -3.675781 L 6.066406 -12.8125 L 20.925781 -12.8125 L 20.925781 -3.675781 C 20.925781 -1.402344 20.621094 -0.644531 19.027344 -0.644531 L 19.027344 0 L 25.472656 0 L 25.472656 -0.644531 C 23.917969 -0.644531 23.578125 -1.402344 23.578125 -3.675781 L 23.578125 -21.339844 C 23.578125 -23.617188 23.917969 -24.375 25.472656 -24.375 L 25.472656 -25.019531 L 19.027344 -25.019531 L 19.027344 -24.375 C 20.621094 -24.375 20.925781 -23.617188 20.925781 -21.339844 L 20.925781 -14.214844 L 6.066406 -14.214844 L 6.066406 -21.339844 C 6.066406 -23.617188 6.40625 -24.375 7.960938 -24.375 L 7.960938 -25.019531 L 1.515625 -25.019531 L 1.515625 -24.375 C 3.070312 -24.375 3.410156 -23.617188 3.410156 -21.339844 L 3.410156 -3.675781 C 3.410156 -1.402344 3.070312 -0.644531 1.515625 -0.644531 Z M 1.515625 0 "/></g></g></g><g fill="#473c38" fill-opacity="1"><g transform="translate(168.788193, 207.254306)"><g><path d="M 4.25 -1.171875 L 1.71875 -1.171875 L 1.234375 0 L -0.078125 0 L 2.375 -5.46875 L 3.625 -5.46875 L 6.0625 0 L 4.734375 0 Z M 3.859375 -2.140625 L 2.984375 -4.234375 L 2.125 -2.140625 Z M 3.859375 -2.140625 "/></g></g></g><g fill="#473c38" fill-opacity="1"><g transform="translate(176.696644, 207.254306)"><g><path d="M 0.65625 -5.46875 L 1.921875 -5.46875 L 1.921875 -1.03125 L 4.65625 -1.03125 L 4.65625 0 L 0.65625 0 Z M 0.65625 -5.46875 "/></g></g></g><g fill="#473c38" fill-opacity="1"><g transform="translate(183.339114, 207.254306)"><g><path d="M 4.671875 -2.84375 C 4.984375 -2.75 5.226562 -2.582031 5.40625 -2.34375 C 5.582031 -2.113281 5.671875 -1.832031 5.671875 -1.5 C 5.671875 -1.019531 5.484375 -0.648438 5.109375 -0.390625 C 4.734375 -0.128906 4.191406 0 3.484375 0 L 0.65625 0 L 0.65625 -5.46875 L 3.328125 -5.46875 C 3.992188 -5.46875 4.503906 -5.335938 4.859375 -5.078125 C 5.210938 -4.828125 5.390625 -4.484375 5.390625 -4.046875 C 5.390625 -3.785156 5.328125 -3.550781 5.203125 -3.34375 C 5.078125 -3.132812 4.898438 -2.96875 4.671875 -2.84375 Z M 1.90625 -4.515625 L 1.90625 -3.234375 L 3.171875 -3.234375 C 3.484375 -3.234375 3.71875 -3.285156 3.875 -3.390625 C 4.039062 -3.503906 4.125 -3.664062 4.125 -3.875 C 4.125 -4.09375 4.039062 -4.253906 3.875 -4.359375 C 3.71875 -4.460938 3.484375 -4.515625 3.171875 -4.515625 Z M 3.390625 -0.953125 C 3.722656 -0.953125 3.972656 -1.003906 4.140625 -1.109375 C 4.304688 -1.222656 4.390625 -1.394531 4.390625 -1.625 C 4.390625 -2.082031 4.054688 -2.3125 3.390625 -2.3125 L 1.90625 -2.3125 L 1.90625 -0.953125 Z M 3.390625 -0.953125 "/></g></g></g><g fill="#473c38" fill-opacity="1"><g transform="translate(191.239754, 207.254306)"><g><path d="M 4.25 -1.171875 L 1.71875 -1.171875 L 1.234375 0 L -0.078125 0 L 2.375 -5.46875 L 3.625 -5.46875 L 6.0625 0 L 4.734375 0 Z M 3.859375 -2.140625 L 2.984375 -4.234375 L 2.125 -2.140625 Z M 3.859375 -2.140625 "/></g></g></g><g fill="#473c38" fill-opacity="1"><g transform="translate(199.148205, 207.254306)"><g><path d="M 5.671875 -5.46875 L 5.671875 0 L 4.625 0 L 1.90625 -3.328125 L 1.90625 0 L 0.65625 0 L 0.65625 -5.46875 L 1.703125 -5.46875 L 4.421875 -2.15625 L 4.421875 -5.46875 Z M 5.671875 -5.46875 "/></g></g></g><g fill="#473c38" fill-opacity="1"><g transform="translate(207.384879, 207.254306)"><g><path d="M 0.65625 -5.46875 L 1.921875 -5.46875 L 1.921875 0 L 0.65625 0 Z M 0.65625 -5.46875 "/></g></g></g><g fill="#473c38" fill-opacity="1"><g transform="translate(211.870502, 207.254306)"><g><path d="M 4.25 -1.171875 L 1.71875 -1.171875 L 1.234375 0 L -0.078125 0 L 2.375 -5.46875 L 3.625 -5.46875 L 6.0625 0 L 4.734375 0 Z M 3.859375 -2.140625 L 2.984375 -4.234375 L 2.125 -2.140625 Z M 3.859375 -2.140625 "/></g></g></g><g fill="#473c38" fill-opacity="1"><g transform="translate(219.778956, 207.254306)"><g><path d="M 5.671875 -5.46875 L 5.671875 0 L 4.625 0 L 1.90625 -3.328125 L 1.90625 0 L 0.65625 0 L 0.65625 -5.46875 L 1.703125 -5.46875 L 4.421875 -2.15625 L 4.421875 -5.46875 Z M 5.671875 -5.46875 "/></g></g></g><g fill="#473c38" fill-opacity="1"><g transform="translate(228.015628, 207.254306)"><g/></g></g><g fill="#473c38" fill-opacity="1"><g transform="translate(232.149584, 207.254306)"><g><path d="M 8.921875 -5.46875 L 7.125 0 L 5.765625 0 L 4.5625 -3.703125 L 3.328125 0 L 1.96875 0 L 0.171875 -5.46875 L 1.484375 -5.46875 L 2.71875 -1.625 L 4.015625 -5.46875 L 5.1875 -5.46875 L 6.4375 -1.59375 L 7.703125 -5.46875 Z M 8.921875 -5.46875 "/></g></g></g><g fill="#473c38" fill-opacity="1"><g transform="translate(243.160467, 207.254306)"><g><path d="M 3.296875 0.09375 C 2.734375 0.09375 2.222656 -0.0234375 1.765625 -0.265625 C 1.304688 -0.515625 0.945312 -0.851562 0.6875 -1.28125 C 0.4375 -1.71875 0.3125 -2.203125 0.3125 -2.734375 C 0.3125 -3.273438 0.4375 -3.757812 0.6875 -4.1875 C 0.945312 -4.613281 1.304688 -4.945312 1.765625 -5.1875 C 2.222656 -5.4375 2.734375 -5.5625 3.296875 -5.5625 C 3.867188 -5.5625 4.378906 -5.4375 4.828125 -5.1875 C 5.285156 -4.945312 5.644531 -4.613281 5.90625 -4.1875 C 6.164062 -3.757812 6.296875 -3.273438 6.296875 -2.734375 C 6.296875 -2.203125 6.164062 -1.71875 5.90625 -1.28125 C 5.644531 -0.851562 5.285156 -0.515625 4.828125 -0.265625 C 4.378906 -0.0234375 3.867188 0.09375 3.296875 0.09375 Z M 3.296875 -0.984375 C 3.617188 -0.984375 3.910156 -1.054688 4.171875 -1.203125 C 4.429688 -1.359375 4.632812 -1.566406 4.78125 -1.828125 C 4.9375 -2.097656 5.015625 -2.398438 5.015625 -2.734375 C 5.015625 -3.078125 4.9375 -3.378906 4.78125 -3.640625 C 4.632812 -3.910156 4.429688 -4.117188 4.171875 -4.265625 C 3.910156 -4.410156 3.617188 -4.484375 3.296875 -4.484375 C 2.972656 -4.484375 2.679688 -4.410156 2.421875 -4.265625 C 2.160156 -4.117188 1.957031 -3.910156 1.8125 -3.640625 C 1.664062 -3.378906 1.59375 -3.078125 1.59375 -2.734375 C 1.59375 -2.398438 1.664062 -2.097656 1.8125 -1.828125 C 1.957031 -1.566406 2.160156 -1.359375 2.421875 -1.203125 C 2.679688 -1.054688 2.972656 -0.984375 3.296875 -0.984375 Z M 3.296875 -0.984375 "/></g></g></g><g fill="#473c38" fill-opacity="1"><g transform="translate(251.67846, 207.254306)"><g><path d="M 3.296875 0.09375 C 2.734375 0.09375 2.222656 -0.0234375 1.765625 -0.265625 C 1.304688 -0.515625 0.945312 -0.851562 0.6875 -1.28125 C 0.4375 -1.71875 0.3125 -2.203125 0.3125 -2.734375 C 0.3125 -3.273438 0.4375 -3.757812 0.6875 -4.1875 C 0.945312 -4.613281 1.304688 -4.945312 1.765625 -5.1875 C 2.222656 -5.4375 2.734375 -5.5625 3.296875 -5.5625 C 3.867188 -5.5625 4.378906 -5.4375 4.828125 -5.1875 C 5.285156 -4.945312 5.644531 -4.613281 5.90625 -4.1875 C 6.164062 -3.757812 6.296875 -3.273438 6.296875 -2.734375 C 6.296875 -2.203125 6.164062 -1.71875 5.90625 -1.28125 C 5.644531 -0.851562 5.285156 -0.515625 4.828125 -0.265625 C 4.378906 -0.0234375 3.867188 0.09375 3.296875 0.09375 Z M 3.296875 -0.984375 C 3.617188 -0.984375 3.910156 -1.054688 4.171875 -1.203125 C 4.429688 -1.359375 4.632812 -1.566406 4.78125 -1.828125 C 4.9375 -2.097656 5.015625 -2.398438 5.015625 -2.734375 C 5.015625 -3.078125 4.9375 -3.378906 4.78125 -3.640625 C 4.632812 -3.910156 4.429688 -4.117188 4.171875 -4.265625 C 3.910156 -4.410156 3.617188 -4.484375 3.296875 -4.484375 C 2.972656 -4.484375 2.679688 -4.410156 2.421875 -4.265625 C 2.160156 -4.117188 1.957031 -3.910156 1.8125 -3.640625 C 1.664062 -3.378906 1.59375 -3.078125 1.59375 -2.734375 C 1.59375 -2.398438 1.664062 -2.097656 1.8125 -1.828125 C 1.957031 -1.566406 2.160156 -1.359375 2.421875 -1.203125 C 2.679688 -1.054688 2.972656 -0.984375 3.296875 -0.984375 Z M 3.296875 -0.984375 "/></g></g></g><g fill="#473c38" fill-opacity="1"><g transform="translate(260.196454, 207.254306)"><g><path d="M 0.65625 -5.46875 L 3.140625 -5.46875 C 3.734375 -5.46875 4.253906 -5.351562 4.703125 -5.125 C 5.160156 -4.90625 5.515625 -4.585938 5.765625 -4.171875 C 6.023438 -3.765625 6.15625 -3.285156 6.15625 -2.734375 C 6.15625 -2.191406 6.023438 -1.710938 5.765625 -1.296875 C 5.515625 -0.890625 5.160156 -0.570312 4.703125 -0.34375 C 4.253906 -0.113281 3.734375 0 3.140625 0 L 0.65625 0 Z M 3.078125 -1.046875 C 3.617188 -1.046875 4.050781 -1.195312 4.375 -1.5 C 4.707031 -1.800781 4.875 -2.210938 4.875 -2.734375 C 4.875 -3.253906 4.707031 -3.664062 4.375 -3.96875 C 4.050781 -4.28125 3.617188 -4.4375 3.078125 -4.4375 L 1.921875 -4.4375 L 1.921875 -1.046875 Z M 3.078125 -1.046875 "/></g></g></g><g fill="#473c38" fill-opacity="1"><g transform="translate(268.573781, 207.254306)"><g/></g></g><g fill="#473c38" fill-opacity="1"><g transform="translate(272.707737, 207.254306)"><g><path d="M 8.921875 -5.46875 L 7.125 0 L 5.765625 0 L 4.5625 -3.703125 L 3.328125 0 L 1.96875 0 L 0.171875 -5.46875 L 1.484375 -5.46875 L 2.71875 -1.625 L 4.015625 -5.46875 L 5.1875 -5.46875 L 6.4375 -1.59375 L 7.703125 -5.46875 Z M 8.921875 -5.46875 "/></g></g></g><g fill="#473c38" fill-opacity="1"><g transform="translate(283.718621, 207.254306)"><g><path d="M 3.296875 0.09375 C 2.734375 0.09375 2.222656 -0.0234375 1.765625 -0.265625 C 1.304688 -0.515625 0.945312 -0.851562 0.6875 -1.28125 C 0.4375 -1.71875 0.3125 -2.203125 0.3125 -2.734375 C 0.3125 -3.273438 0.4375 -3.757812 0.6875 -4.1875 C 0.945312 -4.613281 1.304688 -4.945312 1.765625 -5.1875 C 2.222656 -5.4375 2.734375 -5.5625 3.296875 -5.5625 C 3.867188 -5.5625 4.378906 -5.4375 4.828125 -5.1875 C 5.285156 -4.945312 5.644531 -4.613281 5.90625 -4.1875 C 6.164062 -3.757812 6.296875 -3.273438 6.296875 -2.734375 C 6.296875 -2.203125 6.164062 -1.71875 5.90625 -1.28125 C 5.644531 -0.851562 5.285156 -0.515625 4.828125 -0.265625 C 4.378906 -0.0234375 3.867188 0.09375 3.296875 0.09375 Z M 3.296875 -0.984375 C 3.617188 -0.984375 3.910156 -1.054688 4.171875 -1.203125 C 4.429688 -1.359375 4.632812 -1.566406 4.78125 -1.828125 C 4.9375 -2.097656 5.015625 -2.398438 5.015625 -2.734375 C 5.015625 -3.078125 4.9375 -3.378906 4.78125 -3.640625 C 4.632812 -3.910156 4.429688 -4.117188 4.171875 -4.265625 C 3.910156 -4.410156 3.617188 -4.484375 3.296875 -4.484375 C 2.972656 -4.484375 2.679688 -4.410156 2.421875 -4.265625 C 2.160156 -4.117188 1.957031 -3.910156 1.8125 -3.640625 C 1.664062 -3.378906 1.59375 -3.078125 1.59375 -2.734375 C 1.59375 -2.398438 1.664062 -2.097656 1.8125 -1.828125 C 1.957031 -1.566406 2.160156 -1.359375 2.421875 -1.203125 C 2.679688 -1.054688 2.972656 -0.984375 3.296875 -0.984375 Z M 3.296875 -0.984375 "/></g></g></g><g fill="#473c38" fill-opacity="1"><g transform="translate(292.236614, 207.254306)"><g><path d="M 4.140625 0 L 3.078125 -1.53125 L 1.921875 -1.53125 L 1.921875 0 L 0.65625 0 L 0.65625 -5.46875 L 3.015625 -5.46875 C 3.503906 -5.46875 3.925781 -5.382812 4.28125 -5.21875 C 4.632812 -5.0625 4.90625 -4.832031 5.09375 -4.53125 C 5.289062 -4.238281 5.390625 -3.890625 5.390625 -3.484375 C 5.390625 -3.078125 5.289062 -2.726562 5.09375 -2.4375 C 4.90625 -2.144531 4.628906 -1.921875 4.265625 -1.765625 L 5.5 0 Z M 4.109375 -3.484375 C 4.109375 -3.796875 4.007812 -4.03125 3.8125 -4.1875 C 3.613281 -4.351562 3.328125 -4.4375 2.953125 -4.4375 L 1.921875 -4.4375 L 1.921875 -2.53125 L 2.953125 -2.53125 C 3.328125 -2.53125 3.613281 -2.613281 3.8125 -2.78125 C 4.007812 -2.945312 4.109375 -3.179688 4.109375 -3.484375 Z M 4.109375 -3.484375 "/></g></g></g><g fill="#473c38" fill-opacity="1"><g transform="translate(299.902812, 207.254306)"><g><path d="M 2.640625 -2.15625 L 1.90625 -1.390625 L 1.90625 0 L 0.65625 0 L 0.65625 -5.46875 L 1.90625 -5.46875 L 1.90625 -2.921875 L 4.328125 -5.46875 L 5.734375 -5.46875 L 3.46875 -3.03125 L 5.875 0 L 4.390625 0 Z M 2.640625 -2.15625 "/></g></g></g><g fill="#473c38" fill-opacity="1"><g transform="translate(307.608083, 207.254306)"><g><path d="M 4.890625 -1.015625 L 4.890625 0 L 0.65625 0 L 0.65625 -5.46875 L 4.78125 -5.46875 L 4.78125 -4.453125 L 1.90625 -4.453125 L 1.90625 -3.265625 L 4.453125 -3.265625 L 4.453125 -2.28125 L 1.90625 -2.28125 L 1.90625 -1.015625 Z M 4.890625 -1.015625 "/></g></g></g><g fill="#473c38" fill-opacity="1"><g transform="translate(314.774141, 207.254306)"><g><path d="M 4.140625 0 L 3.078125 -1.53125 L 1.921875 -1.53125 L 1.921875 0 L 0.65625 0 L 0.65625 -5.46875 L 3.015625 -5.46875 C 3.503906 -5.46875 3.925781 -5.382812 4.28125 -5.21875 C 4.632812 -5.0625 4.90625 -4.832031 5.09375 -4.53125 C 5.289062 -4.238281 5.390625 -3.890625 5.390625 -3.484375 C 5.390625 -3.078125 5.289062 -2.726562 5.09375 -2.4375 C 4.90625 -2.144531 4.628906 -1.921875 4.265625 -1.765625 L 5.5 0 Z M 4.109375 -3.484375 C 4.109375 -3.796875 4.007812 -4.03125 3.8125 -4.1875 C 3.613281 -4.351562 3.328125 -4.4375 2.953125 -4.4375 L 1.921875 -4.4375 L 1.921875 -2.53125 L 2.953125 -2.53125 C 3.328125 -2.53125 3.613281 -2.613281 3.8125 -2.78125 C 4.007812 -2.945312 4.109375 -3.179688 4.109375 -3.484375 Z M 4.109375 -3.484375 "/></g></g></g><g fill="#473c38" fill-opacity="1"><g transform="translate(322.44034, 207.254306)"><g><path d="M 2.453125 0.09375 C 2.015625 0.09375 1.59375 0.0351562 1.1875 -0.078125 C 0.789062 -0.203125 0.46875 -0.359375 0.21875 -0.546875 L 0.65625 -1.5 C 0.882812 -1.320312 1.160156 -1.179688 1.484375 -1.078125 C 1.804688 -0.972656 2.128906 -0.921875 2.453125 -0.921875 C 2.816406 -0.921875 3.082031 -0.972656 3.25 -1.078125 C 3.425781 -1.191406 3.515625 -1.335938 3.515625 -1.515625 C 3.515625 -1.640625 3.460938 -1.742188 3.359375 -1.828125 C 3.253906 -1.921875 3.125 -1.992188 2.96875 -2.046875 C 2.8125 -2.097656 2.597656 -2.15625 2.328125 -2.21875 C 1.910156 -2.3125 1.566406 -2.40625 1.296875 -2.5 C 1.035156 -2.601562 0.804688 -2.765625 0.609375 -2.984375 C 0.421875 -3.203125 0.328125 -3.492188 0.328125 -3.859375 C 0.328125 -4.179688 0.410156 -4.46875 0.578125 -4.71875 C 0.753906 -4.976562 1.015625 -5.179688 1.359375 -5.328125 C 1.710938 -5.484375 2.140625 -5.5625 2.640625 -5.5625 C 2.984375 -5.5625 3.320312 -5.519531 3.65625 -5.4375 C 3.988281 -5.351562 4.28125 -5.234375 4.53125 -5.078125 L 4.140625 -4.125 C 3.640625 -4.40625 3.132812 -4.546875 2.625 -4.546875 C 2.269531 -4.546875 2.007812 -4.488281 1.84375 -4.375 C 1.675781 -4.257812 1.59375 -4.109375 1.59375 -3.921875 C 1.59375 -3.734375 1.6875 -3.59375 1.875 -3.5 C 2.070312 -3.414062 2.375 -3.328125 2.78125 -3.234375 C 3.195312 -3.140625 3.535156 -3.039062 3.796875 -2.9375 C 4.066406 -2.84375 4.296875 -2.6875 4.484375 -2.46875 C 4.671875 -2.257812 4.765625 -1.972656 4.765625 -1.609375 C 4.765625 -1.296875 4.675781 -1.007812 4.5 -0.75 C 4.332031 -0.488281 4.070312 -0.28125 3.71875 -0.125 C 3.375 0.0195312 2.953125 0.09375 2.453125 0.09375 Z M 2.453125 0.09375 "/></g></g></g></svg>