<svg xmlns="http://www.w3.org/2000/svg" xmlns:xlink="http://www.w3.org/1999/xlink" zoomAndPan="magnify" preserveAspectRatio="xMidYMid meet" version="1.0" viewBox="-18.32 75 411.46 195.8"><defs><g/><clipPath id="1fb3cb37e4"><path d="M 0 158.140625 L 375 158.140625 L 375 216.859375 L 0 216.859375 Z M 0 158.140625 " clip-rule="nonzero"/></clipPath><clipPath id="c9cb61a97c"><path d="M 215.902344 75 L 270.652344 75 L 270.652344 108.105469 L 215.902344 108.105469 Z M 215.902344 75 " clip-rule="nonzero"/></clipPath></defs><g fill="#473c38" fill-opacity="1"><g transform="translate(1.665122, 270.795926)"><g><path d="M 3.476562 -158.746094 C 24.84375 -158.746094 28.320312 -155.765625 28.320312 -137.132812 L 28.320312 -27.328125 C 28.320312 -8.695312 24.84375 -5.714844 3.476562 -5.714844 L 3.476562 0 L 109.308594 0 C 156.507812 0 184.582031 -33.539062 184.582031 -82.976562 C 184.582031 -132.410156 156.507812 -164.460938 109.308594 -164.460938 L 3.476562 -164.460938 Z M 72.292969 -24.347656 L 72.292969 -158.746094 L 97.878906 -158.746094 C 122.226562 -158.746094 138.125 -122.476562 138.125 -82.976562 C 138.125 -43.476562 122.226562 -5.714844 97.878906 -5.714844 L 85.707031 -5.714844 C 75.273438 -5.714844 72.292969 -9.6875 72.292969 -24.347656 Z M 72.292969 -24.347656 "/></g></g></g><g fill="#473c38" fill-opacity="1"><g transform="translate(193.699869, 270.795926)"><g><path d="M 1.492188 -108.316406 L 7.203125 -108.316406 C 19.378906 -144.585938 34.035156 -158.746094 51.425781 -158.746094 C 63.101562 -158.746094 67.820312 -152.535156 67.820312 -137.132812 L 67.820312 -27.328125 C 67.820312 -8.695312 64.34375 -5.714844 42.976562 -5.714844 L 42.976562 0 L 137.132812 0 L 137.132812 -5.714844 C 115.765625 -5.714844 111.792969 -8.695312 111.792969 -27.328125 L 111.792969 -137.132812 C 111.792969 -152.535156 116.511719 -158.746094 128.1875 -158.746094 C 145.578125 -158.746094 160.234375 -144.585938 172.410156 -108.316406 L 178.121094 -108.316406 L 171.167969 -164.460938 L 8.445312 -164.460938 Z M 1.492188 -108.316406 "/></g></g></g><g clip-path="url(#1fb3cb37e4)"><path fill="#ffffff" d="M -18.320312 158.140625 L 393.144531 158.140625 L 393.144531 216.859375 L -18.320312 216.859375 Z M -18.320312 158.140625 " fill-opacity="1" fill-rule="nonzero"/></g><g clip-path="url(#c9cb61a97c)"><path fill="#473c38" d="M 252.878906 93.722656 C 252.5625 93.96875 252.257812 94.1875 251.984375 94.417969 C 251.636719 94.101562 251.316406 93.78125 250.996094 93.460938 C 250.707031 93.160156 250.417969 92.855469 250.144531 92.535156 C 250.359375 92.261719 250.59375 91.957031 250.839844 91.636719 C 251.140625 91.984375 251.460938 92.332031 251.792969 92.664062 C 252.140625 93.011719 252.503906 93.375 252.878906 93.722656 M 234.527344 107.0625 C 235.136719 106.5 235.703125 105.847656 236.136719 105.109375 C 238.003906 101.921875 236.558594 97.140625 232.558594 96.78125 C 229.664062 96.519531 225.476562 98.996094 226.347656 102.226562 C 227.257812 99.648438 229.617188 97.5625 232.472656 97.820312 C 235.660156 98.113281 236.703125 102.050781 235.222656 104.570312 C 234.628906 105.585938 233.734375 106.410156 232.878906 107.0625 L 215.902344 107.0625 L 215.902344 122.460938 L 270.652344 122.460938 L 270.652344 107.0625 L 240.207031 107.0625 L 249.113281 98.140625 C 249.257812 97.34375 249.882812 96.15625 251.808594 94.546875 C 251.476562 94.246094 251.140625 93.925781 250.839844 93.59375 C 250.546875 93.289062 250.273438 92.984375 250 92.679688 C 248.332031 94.679688 247.101562 95.289062 246.304688 95.402344 L 234.660156 107.046875 L 234.527344 107.046875 Z M 269.191406 79.730469 C 268.855469 80.746094 266.378906 82.019531 263.628906 84.554688 C 261.890625 86.148438 260.355469 88.726562 258.558594 90.117188 C 255.863281 92.21875 253.273438 93.492188 253.082031 93.578125 C 252.691406 93.230469 252.316406 92.867188 251.953125 92.492188 C 251.621094 92.144531 251.289062 91.78125 250.96875 91.421875 C 251.140625 91.074219 252.402344 88.566406 254.414062 85.972656 C 255.804688 84.191406 258.382812 82.644531 259.976562 80.90625 C 262.5 78.152344 263.554688 75.734375 264.800781 75.34375 C 267.945312 74.359375 270.203125 76.589844 269.191406 79.730469 Z M 269.191406 79.730469 " fill-opacity="1" fill-rule="evenodd"/></g><g fill="#473c38" fill-opacity="1"><g transform="translate(78.505328, 200.288863)"><g><path d="M 1.765625 0 L 13.277344 0 C 18.21875 0 27.4375 -1.71875 27.4375 -14.558594 C 27.4375 -27.351562 18.21875 -29.113281 13.277344 -29.113281 L 1.765625 -29.113281 L 1.765625 -28.363281 C 3.574219 -28.363281 3.96875 -27.484375 3.96875 -24.835938 L 3.96875 -4.277344 C 3.96875 -1.632812 3.574219 -0.75 1.765625 -0.75 Z M 7.058594 -1.632812 L 7.058594 -27.484375 L 12.660156 -27.484375 C 20.027344 -27.484375 24.351562 -23.777344 24.351562 -14.558594 C 24.351562 -5.335938 20.027344 -1.632812 12.660156 -1.632812 Z M 7.058594 -1.632812 "/></g></g></g><g fill="#473c38" fill-opacity="1"><g transform="translate(110.175484, 200.288863)"><g><path d="M 1.765625 0 L 9.265625 0 L 9.265625 -0.75 C 7.457031 -0.75 7.058594 -1.632812 7.058594 -4.277344 L 7.058594 -15.441406 L 7.632812 -15.441406 C 13.675781 -15.441406 15.96875 -14.203125 17.511719 -7.585938 C 19.101562 -0.792969 22.894531 0 27.660156 0 L 27.660156 -0.75 C 24.4375 -0.75 22.1875 -2.46875 20.601562 -8.824219 C 19.71875 -12.484375 17.867188 -14.511719 15.527344 -15.660156 C 18.703125 -16.144531 21.660156 -17.558594 21.660156 -22.234375 C 21.660156 -28.671875 15.75 -29.113281 11.953125 -29.113281 L 1.765625 -29.113281 L 1.765625 -28.363281 C 3.574219 -28.363281 3.96875 -27.484375 3.96875 -24.835938 L 3.96875 -4.277344 C 3.96875 -1.632812 3.574219 -0.75 1.765625 -0.75 Z M 7.058594 -17.027344 L 7.058594 -27.484375 L 12.527344 -27.484375 C 16.71875 -27.484375 18.570312 -25.585938 18.570312 -22.1875 C 18.570312 -18.75 16.71875 -17.027344 12.527344 -17.027344 Z M 7.058594 -17.027344 "/></g></g></g><g fill="#473c38" fill-opacity="1"><g transform="translate(140.74294, 200.288863)"><g><path d="M 15.792969 0.441406 C 24.792969 0.441406 27.042969 -5.027344 27.21875 -14.777344 L 27.261719 -24.835938 C 27.261719 -27.484375 27.613281 -28.363281 29.46875 -28.363281 L 29.46875 -29.113281 L 23.46875 -29.113281 L 23.46875 -28.363281 C 25.277344 -28.363281 25.671875 -27.484375 25.671875 -24.835938 L 25.628906 -14.777344 C 25.453125 -6.132812 23.292969 -1.191406 16.320312 -1.191406 C 9.308594 -1.191406 6.574219 -5.160156 6.574219 -14.777344 L 6.617188 -24.835938 C 6.617188 -27.484375 7.015625 -28.363281 8.824219 -28.363281 L 8.824219 -29.113281 L 1.324219 -29.113281 L 1.324219 -28.363281 C 3.132812 -28.363281 3.527344 -27.484375 3.527344 -24.835938 L 3.527344 -14.777344 C 3.574219 -4.898438 6.175781 0.441406 15.792969 0.441406 Z M 15.792969 0.441406 "/></g></g></g><g fill="#473c38" fill-opacity="1"><g transform="translate(174.000993, 200.288863)"><g><path d="M 10.058594 0 L 17.558594 0 L 17.558594 -0.75 C 15.75 -0.75 15.351562 -1.632812 15.351562 -4.277344 L 15.351562 -27.484375 L 21.394531 -27.484375 C 24.085938 -27.484375 25.011719 -26.644531 25.585938 -23.027344 L 26.292969 -23.117188 L 25.542969 -28.585938 L 25.453125 -29.113281 L 2.160156 -29.113281 L 2.074219 -28.585938 L 1.324219 -23.117188 L 2.027344 -23.027344 C 2.601562 -26.644531 3.574219 -27.484375 6.21875 -27.484375 L 12.261719 -27.484375 L 12.261719 -4.277344 C 12.261719 -1.632812 11.867188 -0.75 10.058594 -0.75 Z M 10.058594 0 "/></g></g></g><g fill="#473c38" fill-opacity="1"><g transform="translate(204.08325, 200.288863)"><g><path d="M 1.765625 0 L 21.878906 0 L 21.96875 -0.53125 L 22.71875 -6 L 22.011719 -6.085938 C 21.4375 -2.46875 20.46875 -1.632812 17.820312 -1.632812 L 7.058594 -1.632812 L 7.058594 -13.984375 L 14.25 -13.984375 C 16.894531 -13.984375 17.734375 -13.585938 17.734375 -11.777344 L 18.484375 -11.777344 L 18.484375 -17.777344 L 17.734375 -17.777344 C 17.734375 -15.96875 16.894531 -15.570312 14.25 -15.570312 L 7.058594 -15.570312 L 7.058594 -27.484375 L 17.378906 -27.484375 C 20.027344 -27.484375 20.996094 -26.644531 21.570312 -23.027344 L 22.277344 -23.117188 L 21.527344 -28.585938 L 21.4375 -29.113281 L 1.765625 -29.113281 L 1.765625 -28.363281 C 3.574219 -28.363281 3.96875 -27.484375 3.96875 -24.835938 L 3.96875 -4.277344 C 3.96875 -1.632812 3.574219 -0.75 1.765625 -0.75 Z M 1.765625 0 "/></g></g></g><g fill="#473c38" fill-opacity="1"><g transform="translate(231.03382, 200.288863)"><g><path d="M 14.691406 0.441406 C 22.011719 0.441406 26.335938 -3.351562 26.113281 -10.941406 L 23.027344 -10.058594 C 23.46875 -4.191406 19.9375 -1.191406 14.691406 -1.191406 C 8.292969 -1.191406 4.851562 -6.175781 4.851562 -14.558594 C 4.851562 -22.9375 8.734375 -27.921875 15.128906 -27.921875 C 19.9375 -27.921875 23.46875 -24.925781 23.027344 -19.496094 L 26.113281 -18.617188 C 26.335938 -25.761719 22.011719 -29.554688 15.128906 -29.554688 C 6.75 -29.554688 1.765625 -24.042969 1.765625 -14.558594 C 1.765625 -5.074219 6.308594 0.441406 14.691406 0.441406 Z M 14.691406 0.441406 "/></g></g></g><g fill="#473c38" fill-opacity="1"><g transform="translate(261.38073, 200.288863)"><g><path d="M 1.765625 0 L 9.265625 0 L 9.265625 -0.75 C 7.457031 -0.75 7.058594 -1.632812 7.058594 -4.277344 L 7.058594 -14.910156 L 24.351562 -14.910156 L 24.351562 -4.277344 C 24.351562 -1.632812 23.996094 -0.75 22.144531 -0.75 L 22.144531 0 L 29.644531 0 L 29.644531 -0.75 C 27.835938 -0.75 27.4375 -1.632812 27.4375 -4.277344 L 27.4375 -24.835938 C 27.4375 -27.484375 27.835938 -28.363281 29.644531 -28.363281 L 29.644531 -29.113281 L 22.144531 -29.113281 L 22.144531 -28.363281 C 23.996094 -28.363281 24.351562 -27.484375 24.351562 -24.835938 L 24.351562 -16.542969 L 7.058594 -16.542969 L 7.058594 -24.835938 C 7.058594 -27.484375 7.457031 -28.363281 9.265625 -28.363281 L 9.265625 -29.113281 L 1.765625 -29.113281 L 1.765625 -28.363281 C 3.574219 -28.363281 3.96875 -27.484375 3.96875 -24.835938 L 3.96875 -4.277344 C 3.96875 -1.632812 3.574219 -0.75 1.765625 -0.75 Z M 1.765625 0 "/></g></g></g><g fill="#473c38" fill-opacity="1"><g transform="translate(165.724091, 210.90186)"><g><path d="M 4.953125 -1.359375 L 1.984375 -1.359375 L 1.421875 0 L -0.078125 0 L 2.75 -6.359375 L 4.203125 -6.359375 L 7.0625 0 L 5.515625 0 Z M 4.484375 -2.484375 L 3.46875 -4.921875 L 2.46875 -2.484375 Z M 4.484375 -2.484375 "/></g></g></g><g fill="#473c38" fill-opacity="1"><g transform="translate(174.927568, 210.90186)"><g><path d="M 0.75 -6.359375 L 2.234375 -6.359375 L 2.234375 -1.203125 L 5.421875 -1.203125 L 5.421875 0 L 0.75 0 Z M 0.75 -6.359375 "/></g></g></g><g fill="#473c38" fill-opacity="1"><g transform="translate(182.657757, 210.90186)"><g><path d="M 5.421875 -3.3125 C 5.785156 -3.195312 6.070312 -3.003906 6.28125 -2.734375 C 6.488281 -2.460938 6.59375 -2.128906 6.59375 -1.734375 C 6.59375 -1.179688 6.375 -0.753906 5.9375 -0.453125 C 5.507812 -0.148438 4.878906 0 4.046875 0 L 0.75 0 L 0.75 -6.359375 L 3.859375 -6.359375 C 4.640625 -6.359375 5.238281 -6.207031 5.65625 -5.90625 C 6.070312 -5.613281 6.28125 -5.210938 6.28125 -4.703125 C 6.28125 -4.398438 6.203125 -4.125 6.046875 -3.875 C 5.898438 -3.632812 5.691406 -3.445312 5.421875 -3.3125 Z M 2.21875 -5.25 L 2.21875 -3.75 L 3.6875 -3.75 C 4.050781 -3.75 4.328125 -3.8125 4.515625 -3.9375 C 4.703125 -4.070312 4.796875 -4.265625 4.796875 -4.515625 C 4.796875 -4.765625 4.703125 -4.945312 4.515625 -5.0625 C 4.328125 -5.1875 4.050781 -5.25 3.6875 -5.25 Z M 3.9375 -1.109375 C 4.320312 -1.109375 4.613281 -1.171875 4.8125 -1.296875 C 5.007812 -1.421875 5.109375 -1.617188 5.109375 -1.890625 C 5.109375 -2.421875 4.71875 -2.6875 3.9375 -2.6875 L 2.21875 -2.6875 L 2.21875 -1.109375 Z M 3.9375 -1.109375 "/></g></g></g><g fill="#473c38" fill-opacity="1"><g transform="translate(191.852145, 210.90186)"><g><path d="M 4.953125 -1.359375 L 1.984375 -1.359375 L 1.421875 0 L -0.078125 0 L 2.75 -6.359375 L 4.203125 -6.359375 L 7.0625 0 L 5.515625 0 Z M 4.484375 -2.484375 L 3.46875 -4.921875 L 2.46875 -2.484375 Z M 4.484375 -2.484375 "/></g></g></g><g fill="#473c38" fill-opacity="1"><g transform="translate(201.055621, 210.90186)"><g><path d="M 6.59375 -6.359375 L 6.59375 0 L 5.390625 0 L 2.203125 -3.859375 L 2.203125 0 L 0.75 0 L 0.75 -6.359375 L 1.96875 -6.359375 L 5.140625 -2.5 L 5.140625 -6.359375 Z M 6.59375 -6.359375 "/></g></g></g><g fill="#473c38" fill-opacity="1"><g transform="translate(210.641069, 210.90186)"><g><path d="M 0.75 -6.359375 L 2.234375 -6.359375 L 2.234375 0 L 0.75 0 Z M 0.75 -6.359375 "/></g></g></g><g fill="#473c38" fill-opacity="1"><g transform="translate(215.861223, 210.90186)"><g><path d="M 4.953125 -1.359375 L 1.984375 -1.359375 L 1.421875 0 L -0.078125 0 L 2.75 -6.359375 L 4.203125 -6.359375 L 7.0625 0 L 5.515625 0 Z M 4.484375 -2.484375 L 3.46875 -4.921875 L 2.46875 -2.484375 Z M 4.484375 -2.484375 "/></g></g></g><g fill="#473c38" fill-opacity="1"><g transform="translate(225.064702, 210.90186)"><g><path d="M 6.59375 -6.359375 L 6.59375 0 L 5.390625 0 L 2.203125 -3.859375 L 2.203125 0 L 0.75 0 L 0.75 -6.359375 L 1.96875 -6.359375 L 5.140625 -2.5 L 5.140625 -6.359375 Z M 6.59375 -6.359375 "/></g></g></g><g fill="#473c38" fill-opacity="1"><g transform="translate(234.650147, 210.90186)"><g/></g></g><g fill="#473c38" fill-opacity="1"><g transform="translate(239.461048, 210.90186)"><g><path d="M 10.375 -6.359375 L 8.296875 0 L 6.71875 0 L 5.3125 -4.3125 L 3.859375 0 L 2.296875 0 L 0.203125 -6.359375 L 1.734375 -6.359375 L 3.171875 -1.890625 L 4.671875 -6.359375 L 6.03125 -6.359375 L 7.484375 -1.859375 L 8.96875 -6.359375 Z M 10.375 -6.359375 "/></g></g></g><g fill="#473c38" fill-opacity="1"><g transform="translate(252.274987, 210.90186)"><g><path d="M 3.84375 0.109375 C 3.175781 0.109375 2.578125 -0.03125 2.046875 -0.3125 C 1.515625 -0.601562 1.097656 -1 0.796875 -1.5 C 0.503906 -2 0.359375 -2.5625 0.359375 -3.1875 C 0.359375 -3.8125 0.503906 -4.375 0.796875 -4.875 C 1.097656 -5.375 1.515625 -5.765625 2.046875 -6.046875 C 2.578125 -6.328125 3.175781 -6.46875 3.84375 -6.46875 C 4.5 -6.46875 5.085938 -6.328125 5.609375 -6.046875 C 6.140625 -5.765625 6.554688 -5.375 6.859375 -4.875 C 7.171875 -4.375 7.328125 -3.8125 7.328125 -3.1875 C 7.328125 -2.5625 7.171875 -2 6.859375 -1.5 C 6.554688 -1 6.140625 -0.601562 5.609375 -0.3125 C 5.085938 -0.03125 4.5 0.109375 3.84375 0.109375 Z M 3.84375 -1.140625 C 4.21875 -1.140625 4.554688 -1.226562 4.859375 -1.40625 C 5.160156 -1.582031 5.394531 -1.820312 5.5625 -2.125 C 5.738281 -2.4375 5.828125 -2.789062 5.828125 -3.1875 C 5.828125 -3.582031 5.738281 -3.929688 5.5625 -4.234375 C 5.394531 -4.546875 5.160156 -4.785156 4.859375 -4.953125 C 4.554688 -5.128906 4.21875 -5.21875 3.84375 -5.21875 C 3.46875 -5.21875 3.125 -5.128906 2.8125 -4.953125 C 2.507812 -4.785156 2.269531 -4.546875 2.09375 -4.234375 C 1.925781 -3.929688 1.84375 -3.582031 1.84375 -3.1875 C 1.84375 -2.789062 1.925781 -2.4375 2.09375 -2.125 C 2.269531 -1.820312 2.507812 -1.582031 2.8125 -1.40625 C 3.125 -1.226562 3.46875 -1.140625 3.84375 -1.140625 Z M 3.84375 -1.140625 "/></g></g></g><g fill="#473c38" fill-opacity="1"><g transform="translate(262.18782, 210.90186)"><g><path d="M 3.84375 0.109375 C 3.175781 0.109375 2.578125 -0.03125 2.046875 -0.3125 C 1.515625 -0.601562 1.097656 -1 0.796875 -1.5 C 0.503906 -2 0.359375 -2.5625 0.359375 -3.1875 C 0.359375 -3.8125 0.503906 -4.375 0.796875 -4.875 C 1.097656 -5.375 1.515625 -5.765625 2.046875 -6.046875 C 2.578125 -6.328125 3.175781 -6.46875 3.84375 -6.46875 C 4.5 -6.46875 5.085938 -6.328125 5.609375 -6.046875 C 6.140625 -5.765625 6.554688 -5.375 6.859375 -4.875 C 7.171875 -4.375 7.328125 -3.8125 7.328125 -3.1875 C 7.328125 -2.5625 7.171875 -2 6.859375 -1.5 C 6.554688 -1 6.140625 -0.601562 5.609375 -0.3125 C 5.085938 -0.03125 4.5 0.109375 3.84375 0.109375 Z M 3.84375 -1.140625 C 4.21875 -1.140625 4.554688 -1.226562 4.859375 -1.40625 C 5.160156 -1.582031 5.394531 -1.820312 5.5625 -2.125 C 5.738281 -2.4375 5.828125 -2.789062 5.828125 -3.1875 C 5.828125 -3.582031 5.738281 -3.929688 5.5625 -4.234375 C 5.394531 -4.546875 5.160156 -4.785156 4.859375 -4.953125 C 4.554688 -5.128906 4.21875 -5.21875 3.84375 -5.21875 C 3.46875 -5.21875 3.125 -5.128906 2.8125 -4.953125 C 2.507812 -4.785156 2.269531 -4.546875 2.09375 -4.234375 C 1.925781 -3.929688 1.84375 -3.582031 1.84375 -3.1875 C 1.84375 -2.789062 1.925781 -2.4375 2.09375 -2.125 C 2.269531 -1.820312 2.507812 -1.582031 2.8125 -1.40625 C 3.125 -1.226562 3.46875 -1.140625 3.84375 -1.140625 Z M 3.84375 -1.140625 "/></g></g></g><g fill="#473c38" fill-opacity="1"><g transform="translate(272.100653, 210.90186)"><g><path d="M 0.75 -6.359375 L 3.640625 -6.359375 C 4.335938 -6.359375 4.953125 -6.226562 5.484375 -5.96875 C 6.015625 -5.707031 6.425781 -5.335938 6.71875 -4.859375 C 7.007812 -4.378906 7.15625 -3.820312 7.15625 -3.1875 C 7.15625 -2.550781 7.007812 -1.992188 6.71875 -1.515625 C 6.425781 -1.035156 6.015625 -0.660156 5.484375 -0.390625 C 4.953125 -0.128906 4.335938 0 3.640625 0 L 0.75 0 Z M 3.578125 -1.203125 C 4.210938 -1.203125 4.71875 -1.378906 5.09375 -1.734375 C 5.476562 -2.097656 5.671875 -2.582031 5.671875 -3.1875 C 5.671875 -3.789062 5.476562 -4.269531 5.09375 -4.625 C 4.71875 -4.976562 4.210938 -5.15625 3.578125 -5.15625 L 2.234375 -5.15625 L 2.234375 -1.203125 Z M 3.578125 -1.203125 "/></g></g></g><g fill="#473c38" fill-opacity="1"><g transform="translate(281.849786, 210.90186)"><g/></g></g><g fill="#473c38" fill-opacity="1"><g transform="translate(286.660687, 210.90186)"><g><path d="M 10.375 -6.359375 L 8.296875 0 L 6.71875 0 L 5.3125 -4.3125 L 3.859375 0 L 2.296875 0 L 0.203125 -6.359375 L 1.734375 -6.359375 L 3.171875 -1.890625 L 4.671875 -6.359375 L 6.03125 -6.359375 L 7.484375 -1.859375 L 8.96875 -6.359375 Z M 10.375 -6.359375 "/></g></g></g><g fill="#473c38" fill-opacity="1"><g transform="translate(299.474626, 210.90186)"><g><path d="M 3.84375 0.109375 C 3.175781 0.109375 2.578125 -0.03125 2.046875 -0.3125 C 1.515625 -0.601562 1.097656 -1 0.796875 -1.5 C 0.503906 -2 0.359375 -2.5625 0.359375 -3.1875 C 0.359375 -3.8125 0.503906 -4.375 0.796875 -4.875 C 1.097656 -5.375 1.515625 -5.765625 2.046875 -6.046875 C 2.578125 -6.328125 3.175781 -6.46875 3.84375 -6.46875 C 4.5 -6.46875 5.085938 -6.328125 5.609375 -6.046875 C 6.140625 -5.765625 6.554688 -5.375 6.859375 -4.875 C 7.171875 -4.375 7.328125 -3.8125 7.328125 -3.1875 C 7.328125 -2.5625 7.171875 -2 6.859375 -1.5 C 6.554688 -1 6.140625 -0.601562 5.609375 -0.3125 C 5.085938 -0.03125 4.5 0.109375 3.84375 0.109375 Z M 3.84375 -1.140625 C 4.21875 -1.140625 4.554688 -1.226562 4.859375 -1.40625 C 5.160156 -1.582031 5.394531 -1.820312 5.5625 -2.125 C 5.738281 -2.4375 5.828125 -2.789062 5.828125 -3.1875 C 5.828125 -3.582031 5.738281 -3.929688 5.5625 -4.234375 C 5.394531 -4.546875 5.160156 -4.785156 4.859375 -4.953125 C 4.554688 -5.128906 4.21875 -5.21875 3.84375 -5.21875 C 3.46875 -5.21875 3.125 -5.128906 2.8125 -4.953125 C 2.507812 -4.785156 2.269531 -4.546875 2.09375 -4.234375 C 1.925781 -3.929688 1.84375 -3.582031 1.84375 -3.1875 C 1.84375 -2.789062 1.925781 -2.4375 2.09375 -2.125 C 2.269531 -1.820312 2.507812 -1.582031 2.8125 -1.40625 C 3.125 -1.226562 3.46875 -1.140625 3.84375 -1.140625 Z M 3.84375 -1.140625 "/></g></g></g><g fill="#473c38" fill-opacity="1"><g transform="translate(309.387459, 210.90186)"><g><path d="M 4.8125 0 L 3.578125 -1.765625 L 2.234375 -1.765625 L 2.234375 0 L 0.75 0 L 0.75 -6.359375 L 3.515625 -6.359375 C 4.078125 -6.359375 4.566406 -6.265625 4.984375 -6.078125 C 5.398438 -5.890625 5.71875 -5.625 5.9375 -5.28125 C 6.164062 -4.9375 6.28125 -4.53125 6.28125 -4.0625 C 6.28125 -3.582031 6.164062 -3.171875 5.9375 -2.828125 C 5.707031 -2.484375 5.382812 -2.222656 4.96875 -2.046875 L 6.390625 0 Z M 4.78125 -4.0625 C 4.78125 -4.414062 4.664062 -4.6875 4.4375 -4.875 C 4.207031 -5.070312 3.867188 -5.171875 3.421875 -5.171875 L 2.234375 -5.171875 L 2.234375 -2.953125 L 3.421875 -2.953125 C 3.867188 -2.953125 4.207031 -3.046875 4.4375 -3.234375 C 4.664062 -3.429688 4.78125 -3.707031 4.78125 -4.0625 Z M 4.78125 -4.0625 "/></g></g></g><g fill="#473c38" fill-opacity="1"><g transform="translate(318.309014, 210.90186)"><g><path d="M 3.078125 -2.5 L 2.21875 -1.609375 L 2.21875 0 L 0.75 0 L 0.75 -6.359375 L 2.21875 -6.359375 L 2.21875 -3.390625 L 5.03125 -6.359375 L 6.671875 -6.359375 L 4.03125 -3.53125 L 6.828125 0 L 5.109375 0 Z M 3.078125 -2.5 "/></g></g></g><g fill="#473c38" fill-opacity="1"><g transform="translate(327.276039, 210.90186)"><g><path d="M 5.6875 -1.1875 L 5.6875 0 L 0.75 0 L 0.75 -6.359375 L 5.5625 -6.359375 L 5.5625 -5.1875 L 2.21875 -5.1875 L 2.21875 -3.796875 L 5.171875 -3.796875 L 5.171875 -2.65625 L 2.21875 -2.65625 L 2.21875 -1.1875 Z M 5.6875 -1.1875 "/></g></g></g><g fill="#473c38" fill-opacity="1"><g transform="translate(335.615555, 210.90186)"><g><path d="M 4.8125 0 L 3.578125 -1.765625 L 2.234375 -1.765625 L 2.234375 0 L 0.75 0 L 0.75 -6.359375 L 3.515625 -6.359375 C 4.078125 -6.359375 4.566406 -6.265625 4.984375 -6.078125 C 5.398438 -5.890625 5.71875 -5.625 5.9375 -5.28125 C 6.164062 -4.9375 6.28125 -4.53125 6.28125 -4.0625 C 6.28125 -3.582031 6.164062 -3.171875 5.9375 -2.828125 C 5.707031 -2.484375 5.382812 -2.222656 4.96875 -2.046875 L 6.390625 0 Z M 4.78125 -4.0625 C 4.78125 -4.414062 4.664062 -4.6875 4.4375 -4.875 C 4.207031 -5.070312 3.867188 -5.171875 3.421875 -5.171875 L 2.234375 -5.171875 L 2.234375 -2.953125 L 3.421875 -2.953125 C 3.867188 -2.953125 4.207031 -3.046875 4.4375 -3.234375 C 4.664062 -3.429688 4.78125 -3.707031 4.78125 -4.0625 Z M 4.78125 -4.0625 "/></g></g></g><g fill="#473c38" fill-opacity="1"><g transform="translate(344.537111, 210.90186)"><g><path d="M 2.84375 0.109375 C 2.34375 0.109375 1.859375 0.0390625 1.390625 -0.09375 C 0.921875 -0.226562 0.539062 -0.40625 0.25 -0.625 L 0.75 -1.734375 C 1.019531 -1.535156 1.34375 -1.375 1.71875 -1.25 C 2.101562 -1.132812 2.484375 -1.078125 2.859375 -1.078125 C 3.273438 -1.078125 3.582031 -1.140625 3.78125 -1.265625 C 3.976562 -1.390625 4.078125 -1.550781 4.078125 -1.75 C 4.078125 -1.90625 4.019531 -2.03125 3.90625 -2.125 C 3.789062 -2.226562 3.640625 -2.3125 3.453125 -2.375 C 3.265625 -2.4375 3.015625 -2.503906 2.703125 -2.578125 C 2.210938 -2.691406 1.8125 -2.804688 1.5 -2.921875 C 1.195312 -3.035156 0.929688 -3.21875 0.703125 -3.46875 C 0.484375 -3.726562 0.375 -4.070312 0.375 -4.5 C 0.375 -4.863281 0.472656 -5.195312 0.671875 -5.5 C 0.878906 -5.800781 1.179688 -6.035156 1.578125 -6.203125 C 1.984375 -6.378906 2.476562 -6.46875 3.0625 -6.46875 C 3.46875 -6.46875 3.863281 -6.421875 4.25 -6.328125 C 4.644531 -6.234375 4.988281 -6.09375 5.28125 -5.90625 L 4.8125 -4.796875 C 4.226562 -5.128906 3.644531 -5.296875 3.0625 -5.296875 C 2.644531 -5.296875 2.335938 -5.226562 2.140625 -5.09375 C 1.941406 -4.957031 1.84375 -4.78125 1.84375 -4.5625 C 1.84375 -4.34375 1.957031 -4.179688 2.1875 -4.078125 C 2.414062 -3.972656 2.765625 -3.867188 3.234375 -3.765625 C 3.710938 -3.648438 4.109375 -3.535156 4.421875 -3.421875 C 4.734375 -3.304688 5 -3.125 5.21875 -2.875 C 5.4375 -2.625 5.546875 -2.285156 5.546875 -1.859375 C 5.546875 -1.492188 5.441406 -1.160156 5.234375 -0.859375 C 5.035156 -0.566406 4.734375 -0.332031 4.328125 -0.15625 C 3.921875 0.0195312 3.425781 0.109375 2.84375 0.109375 Z M 2.84375 0.109375 "/></g></g></g></svg>