<svg xmlns="http://www.w3.org/2000/svg" xmlns:xlink="http://www.w3.org/1999/xlink" width="400" zoomAndPan="magnify" viewBox="0 0 300 179.999997" height="240" preserveAspectRatio="xMidYMid meet" version="1.0"><defs><g/><clipPath id="45280a372b"><path d="M 0 79.339844 L 300 79.339844 L 300 126.765625 L 0 126.765625 Z M 0 79.339844 " clip-rule="nonzero"/></clipPath><clipPath id="90845f6763"><path d="M 172.597656 12 L 216.847656 12 L 216.847656 39.40625 L 172.597656 39.40625 Z M 172.597656 12 " clip-rule="nonzero"/></clipPath></defs><g fill="#473c38" fill-opacity="1"><g transform="translate(-0.460521, 170.337916)"><g><path d="M 2.808594 -128.230469 C 20.066406 -128.230469 22.878906 -125.824219 22.878906 -110.773438 L 22.878906 -22.074219 C 22.878906 -7.023438 20.066406 -4.617188 2.808594 -4.617188 L 2.808594 0 L 88.296875 0 C 126.425781 0 149.101562 -27.089844 149.101562 -67.027344 C 149.101562 -106.960938 126.425781 -132.847656 88.296875 -132.847656 L 2.808594 -132.847656 Z M 58.398438 -19.667969 L 58.398438 -128.230469 L 79.066406 -128.230469 C 98.734375 -128.230469 111.574219 -98.933594 111.574219 -67.027344 C 111.574219 -35.117188 98.734375 -4.617188 79.066406 -4.617188 L 69.234375 -4.617188 C 60.804688 -4.617188 58.398438 -7.828125 58.398438 -19.667969 Z M 58.398438 -19.667969 "/></g></g></g><g fill="#473c38" fill-opacity="1"><g transform="translate(154.661813, 170.337916)"><g><path d="M 1.203125 -87.496094 L 5.820312 -87.496094 C 15.652344 -116.792969 27.492188 -128.230469 41.539062 -128.230469 C 50.972656 -128.230469 54.785156 -123.214844 54.785156 -110.773438 L 54.785156 -22.074219 C 54.785156 -7.023438 51.976562 -4.617188 34.71875 -4.617188 L 34.71875 0 L 110.773438 0 L 110.773438 -4.617188 C 93.515625 -4.617188 90.304688 -7.023438 90.304688 -22.074219 L 90.304688 -110.773438 C 90.304688 -123.214844 94.117188 -128.230469 103.546875 -128.230469 C 117.597656 -128.230469 129.4375 -116.792969 139.269531 -87.496094 L 143.882812 -87.496094 L 138.265625 -132.847656 L 6.824219 -132.847656 Z M 1.203125 -87.496094 "/></g></g></g><g clip-path="url(#45280a372b)"><path fill="#f8f9fa" d="M -16.601562 79.339844 L 315.769531 79.339844 L 315.769531 126.765625 L -16.601562 126.765625 Z M -16.601562 79.339844 " fill-opacity="1" fill-rule="nonzero"/></g><g clip-path="url(#90845f6763)"><path fill="#473c38" d="M 202.46875 27.300781 C 202.210938 27.5 201.964844 27.675781 201.742188 27.863281 C 201.460938 27.605469 201.203125 27.347656 200.945312 27.089844 C 200.710938 26.84375 200.476562 26.601562 200.257812 26.34375 C 200.429688 26.121094 200.617188 25.875 200.816406 25.617188 C 201.0625 25.898438 201.320312 26.179688 201.589844 26.449219 C 201.871094 26.730469 202.164062 27.019531 202.46875 27.300781 M 187.644531 38.078125 C 188.132812 37.621094 188.589844 37.09375 188.941406 36.5 C 190.453125 33.925781 189.28125 30.0625 186.050781 29.769531 C 183.710938 29.558594 180.332031 31.5625 181.03125 34.167969 C 181.769531 32.085938 183.675781 30.402344 185.980469 30.613281 C 188.554688 30.847656 189.398438 34.03125 188.203125 36.066406 C 187.726562 36.882812 187 37.550781 186.308594 38.078125 L 172.597656 38.078125 L 172.597656 50.515625 L 216.824219 50.515625 L 216.824219 38.078125 L 192.230469 38.078125 L 199.425781 30.871094 C 199.542969 30.226562 200.046875 29.265625 201.601562 27.96875 C 201.332031 27.722656 201.0625 27.464844 200.816406 27.195312 C 200.582031 26.949219 200.359375 26.707031 200.140625 26.460938 C 198.792969 28.074219 197.800781 28.566406 197.15625 28.660156 L 187.75 38.066406 L 187.644531 38.066406 Z M 215.640625 16 C 215.371094 16.820312 213.371094 17.847656 211.148438 19.894531 C 209.746094 21.183594 208.503906 23.265625 207.054688 24.386719 C 204.878906 26.085938 202.785156 27.113281 202.632812 27.183594 C 202.316406 26.902344 202.011719 26.613281 201.71875 26.308594 C 201.449219 26.027344 201.179688 25.734375 200.921875 25.441406 C 201.0625 25.160156 202.082031 23.136719 203.707031 21.042969 C 204.832031 19.601562 206.914062 18.351562 208.199219 16.949219 C 210.234375 14.722656 211.089844 12.769531 212.097656 12.453125 C 214.636719 11.660156 216.460938 13.460938 215.640625 16 Z M 215.640625 16 " fill-opacity="1" fill-rule="evenodd"/></g><g fill="#473c38" fill-opacity="1"><g transform="translate(61.609664, 113.38353)"><g><path d="M 1.425781 0 L 10.726562 0 C 14.714844 0 22.164062 -1.390625 22.164062 -11.757812 C 22.164062 -22.09375 14.714844 -23.519531 10.726562 -23.519531 L 1.425781 -23.519531 L 1.425781 -22.914062 C 2.886719 -22.914062 3.207031 -22.199219 3.207031 -20.0625 L 3.207031 -3.457031 C 3.207031 -1.320312 2.886719 -0.605469 1.425781 -0.605469 Z M 5.703125 -1.320312 L 5.703125 -22.199219 L 10.226562 -22.199219 C 16.175781 -22.199219 19.667969 -19.207031 19.667969 -11.757812 C 19.667969 -4.3125 16.175781 -1.320312 10.226562 -1.320312 Z M 5.703125 -1.320312 "/></g></g></g><g fill="#473c38" fill-opacity="1"><g transform="translate(87.192266, 113.38353)"><g><path d="M 1.425781 0 L 7.484375 0 L 7.484375 -0.605469 C 6.023438 -0.605469 5.703125 -1.320312 5.703125 -3.457031 L 5.703125 -12.472656 L 6.164062 -12.472656 C 11.046875 -12.472656 12.898438 -11.472656 14.148438 -6.128906 C 15.429688 -0.640625 18.492188 0 22.34375 0 L 22.34375 -0.605469 C 19.742188 -0.605469 17.921875 -1.996094 16.640625 -7.125 C 15.929688 -10.085938 14.433594 -11.722656 12.542969 -12.648438 C 15.109375 -13.042969 17.496094 -14.183594 17.496094 -17.960938 C 17.496094 -23.160156 12.722656 -23.519531 9.65625 -23.519531 L 1.425781 -23.519531 L 1.425781 -22.914062 C 2.886719 -22.914062 3.207031 -22.199219 3.207031 -20.0625 L 3.207031 -3.457031 C 3.207031 -1.320312 2.886719 -0.605469 1.425781 -0.605469 Z M 5.703125 -13.753906 L 5.703125 -22.199219 L 10.121094 -22.199219 C 13.503906 -22.199219 15 -20.667969 15 -17.921875 C 15 -15.144531 13.503906 -13.753906 10.121094 -13.753906 Z M 5.703125 -13.753906 "/></g></g></g><g fill="#473c38" fill-opacity="1"><g transform="translate(111.884128, 113.38353)"><g><path d="M 12.757812 0.355469 C 20.027344 0.355469 21.84375 -4.0625 21.984375 -11.9375 L 22.023438 -20.0625 C 22.023438 -22.199219 22.308594 -22.914062 23.804688 -22.914062 L 23.804688 -23.519531 L 18.957031 -23.519531 L 18.957031 -22.914062 C 20.417969 -22.914062 20.738281 -22.199219 20.738281 -20.0625 L 20.703125 -11.9375 C 20.5625 -4.953125 18.816406 -0.960938 13.183594 -0.960938 C 7.519531 -0.960938 5.308594 -4.167969 5.308594 -11.9375 L 5.34375 -20.0625 C 5.34375 -22.199219 5.664062 -22.914062 7.125 -22.914062 L 7.125 -23.519531 L 1.070312 -23.519531 L 1.070312 -22.914062 C 2.53125 -22.914062 2.851562 -22.199219 2.851562 -20.0625 L 2.851562 -11.9375 C 2.886719 -3.957031 4.988281 0.355469 12.757812 0.355469 Z M 12.757812 0.355469 "/></g></g></g><g fill="#473c38" fill-opacity="1"><g transform="translate(138.749407, 113.38353)"><g><path d="M 8.125 0 L 14.183594 0 L 14.183594 -0.605469 C 12.722656 -0.605469 12.402344 -1.320312 12.402344 -3.457031 L 12.402344 -22.199219 L 17.28125 -22.199219 C 19.457031 -22.199219 20.203125 -21.523438 20.667969 -18.601562 L 21.238281 -18.671875 L 20.632812 -23.089844 L 20.5625 -23.519531 L 1.746094 -23.519531 L 1.675781 -23.089844 L 1.070312 -18.671875 L 1.640625 -18.601562 C 2.101562 -21.523438 2.886719 -22.199219 5.023438 -22.199219 L 9.90625 -22.199219 L 9.90625 -3.457031 C 9.90625 -1.320312 9.585938 -0.605469 8.125 -0.605469 Z M 8.125 0 "/></g></g></g><g fill="#473c38" fill-opacity="1"><g transform="translate(163.049333, 113.38353)"><g><path d="M 1.425781 0 L 17.675781 0 L 17.746094 -0.425781 L 18.351562 -4.847656 L 17.78125 -4.917969 C 17.316406 -1.996094 16.535156 -1.320312 14.394531 -1.320312 L 5.703125 -1.320312 L 5.703125 -11.296875 L 11.507812 -11.296875 C 13.648438 -11.296875 14.324219 -10.976562 14.324219 -9.515625 L 14.929688 -9.515625 L 14.929688 -14.359375 L 14.324219 -14.359375 C 14.324219 -12.898438 13.648438 -12.578125 11.507812 -12.578125 L 5.703125 -12.578125 L 5.703125 -22.199219 L 14.039062 -22.199219 C 16.175781 -22.199219 16.960938 -21.523438 17.425781 -18.601562 L 17.996094 -18.671875 L 17.390625 -23.089844 L 17.316406 -23.519531 L 1.425781 -23.519531 L 1.425781 -22.914062 C 2.886719 -22.914062 3.207031 -22.199219 3.207031 -20.0625 L 3.207031 -3.457031 C 3.207031 -1.320312 2.886719 -0.605469 1.425781 -0.605469 Z M 1.425781 0 "/></g></g></g><g fill="#473c38" fill-opacity="1"><g transform="translate(184.819536, 113.38353)"><g><path d="M 11.867188 0.355469 C 17.78125 0.355469 21.273438 -2.707031 21.09375 -8.835938 L 18.601562 -8.125 C 18.957031 -3.386719 16.105469 -0.960938 11.867188 -0.960938 C 6.699219 -0.960938 3.917969 -4.988281 3.917969 -11.757812 C 3.917969 -18.53125 7.054688 -22.554688 12.222656 -22.554688 C 16.105469 -22.554688 18.957031 -20.132812 18.601562 -15.75 L 21.09375 -15.039062 C 21.273438 -20.808594 17.78125 -23.875 12.222656 -23.875 C 5.453125 -23.875 1.425781 -19.421875 1.425781 -11.757812 C 1.425781 -4.097656 5.09375 0.355469 11.867188 0.355469 Z M 11.867188 0.355469 "/></g></g></g><g fill="#473c38" fill-opacity="1"><g transform="translate(209.333244, 113.38353)"><g><path d="M 1.425781 0 L 7.484375 0 L 7.484375 -0.605469 C 6.023438 -0.605469 5.703125 -1.320312 5.703125 -3.457031 L 5.703125 -12.042969 L 19.667969 -12.042969 L 19.667969 -3.457031 C 19.667969 -1.320312 19.386719 -0.605469 17.886719 -0.605469 L 17.886719 0 L 23.945312 0 L 23.945312 -0.605469 C 22.484375 -0.605469 22.164062 -1.320312 22.164062 -3.457031 L 22.164062 -20.0625 C 22.164062 -22.199219 22.484375 -22.914062 23.945312 -22.914062 L 23.945312 -23.519531 L 17.886719 -23.519531 L 17.886719 -22.914062 C 19.386719 -22.914062 19.667969 -22.199219 19.667969 -20.0625 L 19.667969 -13.363281 L 5.703125 -13.363281 L 5.703125 -20.0625 C 5.703125 -22.199219 6.023438 -22.914062 7.484375 -22.914062 L 7.484375 -23.519531 L 1.425781 -23.519531 L 1.425781 -22.914062 C 2.886719 -22.914062 3.207031 -22.199219 3.207031 -20.0625 L 3.207031 -3.457031 C 3.207031 -1.320312 2.886719 -0.605469 1.425781 -0.605469 Z M 1.425781 0 "/></g></g></g><g fill="#473c38" fill-opacity="1"><g transform="translate(132.063464, 121.956554)"><g><path d="M 4 -1.109375 L 1.609375 -1.109375 L 1.15625 0 L -0.0625 0 L 2.21875 -5.140625 L 3.40625 -5.140625 L 5.703125 0 L 4.453125 0 Z M 3.625 -2 L 2.8125 -3.96875 L 1.984375 -2 Z M 3.625 -2 "/></g></g></g><g fill="#473c38" fill-opacity="1"><g transform="translate(139.497873, 121.956554)"><g><path d="M 0.609375 -5.140625 L 1.796875 -5.140625 L 1.796875 -0.96875 L 4.375 -0.96875 L 4.375 0 L 0.609375 0 Z M 0.609375 -5.140625 "/></g></g></g><g fill="#473c38" fill-opacity="1"><g transform="translate(145.742185, 121.956554)"><g><path d="M 4.390625 -2.671875 C 4.679688 -2.578125 4.910156 -2.421875 5.078125 -2.203125 C 5.242188 -1.984375 5.328125 -1.71875 5.328125 -1.40625 C 5.328125 -0.957031 5.148438 -0.609375 4.796875 -0.359375 C 4.453125 -0.117188 3.941406 0 3.265625 0 L 0.609375 0 L 0.609375 -5.140625 L 3.125 -5.140625 C 3.75 -5.140625 4.226562 -5.019531 4.5625 -4.78125 C 4.894531 -4.539062 5.0625 -4.210938 5.0625 -3.796875 C 5.0625 -3.546875 5 -3.320312 4.875 -3.125 C 4.757812 -2.9375 4.597656 -2.785156 4.390625 -2.671875 Z M 1.796875 -4.25 L 1.796875 -3.03125 L 2.96875 -3.03125 C 3.269531 -3.03125 3.492188 -3.082031 3.640625 -3.1875 C 3.796875 -3.289062 3.875 -3.441406 3.875 -3.640625 C 3.875 -3.835938 3.796875 -3.988281 3.640625 -4.09375 C 3.492188 -4.195312 3.269531 -4.25 2.96875 -4.25 Z M 3.1875 -0.890625 C 3.5 -0.890625 3.734375 -0.941406 3.890625 -1.046875 C 4.046875 -1.148438 4.125 -1.3125 4.125 -1.53125 C 4.125 -1.957031 3.8125 -2.171875 3.1875 -2.171875 L 1.796875 -2.171875 L 1.796875 -0.890625 Z M 3.1875 -0.890625 "/></g></g></g><g fill="#473c38" fill-opacity="1"><g transform="translate(153.169252, 121.956554)"><g><path d="M 4 -1.109375 L 1.609375 -1.109375 L 1.15625 0 L -0.0625 0 L 2.21875 -5.140625 L 3.40625 -5.140625 L 5.703125 0 L 4.453125 0 Z M 3.625 -2 L 2.8125 -3.96875 L 1.984375 -2 Z M 3.625 -2 "/></g></g></g><g fill="#473c38" fill-opacity="1"><g transform="translate(160.603662, 121.956554)"><g><path d="M 5.328125 -5.140625 L 5.328125 0 L 4.34375 0 L 1.78125 -3.125 L 1.78125 0 L 0.609375 0 L 0.609375 -5.140625 L 1.59375 -5.140625 L 4.15625 -2.015625 L 4.15625 -5.140625 Z M 5.328125 -5.140625 "/></g></g></g><g fill="#473c38" fill-opacity="1"><g transform="translate(168.34662, 121.956554)"><g><path d="M 0.609375 -5.140625 L 1.796875 -5.140625 L 1.796875 0 L 0.609375 0 Z M 0.609375 -5.140625 "/></g></g></g><g fill="#473c38" fill-opacity="1"><g transform="translate(172.563369, 121.956554)"><g><path d="M 4 -1.109375 L 1.609375 -1.109375 L 1.15625 0 L -0.0625 0 L 2.21875 -5.140625 L 3.40625 -5.140625 L 5.703125 0 L 4.453125 0 Z M 3.625 -2 L 2.8125 -3.96875 L 1.984375 -2 Z M 3.625 -2 "/></g></g></g><g fill="#473c38" fill-opacity="1"><g transform="translate(179.997781, 121.956554)"><g><path d="M 5.328125 -5.140625 L 5.328125 0 L 4.34375 0 L 1.78125 -3.125 L 1.78125 0 L 0.609375 0 L 0.609375 -5.140625 L 1.59375 -5.140625 L 4.15625 -2.015625 L 4.15625 -5.140625 Z M 5.328125 -5.140625 "/></g></g></g><g fill="#473c38" fill-opacity="1"><g transform="translate(187.740737, 121.956554)"><g/></g></g><g fill="#473c38" fill-opacity="1"><g transform="translate(191.626899, 121.956554)"><g><path d="M 8.375 -5.140625 L 6.703125 0 L 5.421875 0 L 4.28125 -3.484375 L 3.125 0 L 1.84375 0 L 0.15625 -5.140625 L 1.390625 -5.140625 L 2.5625 -1.53125 L 3.765625 -5.140625 L 4.875 -5.140625 L 6.046875 -1.5 L 7.234375 -5.140625 Z M 8.375 -5.140625 "/></g></g></g><g fill="#473c38" fill-opacity="1"><g transform="translate(201.977777, 121.956554)"><g><path d="M 3.09375 0.09375 C 2.5625 0.09375 2.082031 -0.0195312 1.65625 -0.25 C 1.226562 -0.488281 0.890625 -0.804688 0.640625 -1.203125 C 0.398438 -1.609375 0.28125 -2.066406 0.28125 -2.578125 C 0.28125 -3.078125 0.398438 -3.523438 0.640625 -3.921875 C 0.890625 -4.328125 1.226562 -4.644531 1.65625 -4.875 C 2.082031 -5.113281 2.5625 -5.234375 3.09375 -5.234375 C 3.632812 -5.234375 4.113281 -5.113281 4.53125 -4.875 C 4.957031 -4.644531 5.289062 -4.328125 5.53125 -3.921875 C 5.78125 -3.523438 5.90625 -3.078125 5.90625 -2.578125 C 5.90625 -2.066406 5.78125 -1.609375 5.53125 -1.203125 C 5.289062 -0.804688 4.957031 -0.488281 4.53125 -0.25 C 4.113281 -0.0195312 3.632812 0.09375 3.09375 0.09375 Z M 3.09375 -0.921875 C 3.394531 -0.921875 3.664062 -0.988281 3.90625 -1.125 C 4.15625 -1.269531 4.347656 -1.46875 4.484375 -1.71875 C 4.628906 -1.96875 4.703125 -2.253906 4.703125 -2.578125 C 4.703125 -2.890625 4.628906 -3.171875 4.484375 -3.421875 C 4.347656 -3.671875 4.15625 -3.863281 3.90625 -4 C 3.664062 -4.144531 3.394531 -4.21875 3.09375 -4.21875 C 2.789062 -4.21875 2.515625 -4.144531 2.265625 -4 C 2.023438 -3.863281 1.832031 -3.671875 1.6875 -3.421875 C 1.550781 -3.171875 1.484375 -2.890625 1.484375 -2.578125 C 1.484375 -2.253906 1.550781 -1.96875 1.6875 -1.71875 C 1.832031 -1.46875 2.023438 -1.269531 2.265625 -1.125 C 2.515625 -0.988281 2.789062 -0.921875 3.09375 -0.921875 Z M 3.09375 -0.921875 "/></g></g></g><g fill="#473c38" fill-opacity="1"><g transform="translate(209.985192, 121.956554)"><g><path d="M 3.09375 0.09375 C 2.5625 0.09375 2.082031 -0.0195312 1.65625 -0.25 C 1.226562 -0.488281 0.890625 -0.804688 0.640625 -1.203125 C 0.398438 -1.609375 0.28125 -2.066406 0.28125 -2.578125 C 0.28125 -3.078125 0.398438 -3.523438 0.640625 -3.921875 C 0.890625 -4.328125 1.226562 -4.644531 1.65625 -4.875 C 2.082031 -5.113281 2.5625 -5.234375 3.09375 -5.234375 C 3.632812 -5.234375 4.113281 -5.113281 4.53125 -4.875 C 4.957031 -4.644531 5.289062 -4.328125 5.53125 -3.921875 C 5.78125 -3.523438 5.90625 -3.078125 5.90625 -2.578125 C 5.90625 -2.066406 5.78125 -1.609375 5.53125 -1.203125 C 5.289062 -0.804688 4.957031 -0.488281 4.53125 -0.25 C 4.113281 -0.0195312 3.632812 0.09375 3.09375 0.09375 Z M 3.09375 -0.921875 C 3.394531 -0.921875 3.664062 -0.988281 3.90625 -1.125 C 4.15625 -1.269531 4.347656 -1.46875 4.484375 -1.71875 C 4.628906 -1.96875 4.703125 -2.253906 4.703125 -2.578125 C 4.703125 -2.890625 4.628906 -3.171875 4.484375 -3.421875 C 4.347656 -3.671875 4.15625 -3.863281 3.90625 -4 C 3.664062 -4.144531 3.394531 -4.21875 3.09375 -4.21875 C 2.789062 -4.21875 2.515625 -4.144531 2.265625 -4 C 2.023438 -3.863281 1.832031 -3.671875 1.6875 -3.421875 C 1.550781 -3.171875 1.484375 -2.890625 1.484375 -2.578125 C 1.484375 -2.253906 1.550781 -1.96875 1.6875 -1.71875 C 1.832031 -1.46875 2.023438 -1.269531 2.265625 -1.125 C 2.515625 -0.988281 2.789062 -0.921875 3.09375 -0.921875 Z M 3.09375 -0.921875 "/></g></g></g><g fill="#473c38" fill-opacity="1"><g transform="translate(217.992606, 121.956554)"><g><path d="M 0.609375 -5.140625 L 2.9375 -5.140625 C 3.5 -5.140625 3.992188 -5.03125 4.421875 -4.8125 C 4.847656 -4.601562 5.179688 -4.304688 5.421875 -3.921875 C 5.660156 -3.535156 5.78125 -3.085938 5.78125 -2.578125 C 5.78125 -2.054688 5.660156 -1.601562 5.421875 -1.21875 C 5.179688 -0.832031 4.847656 -0.53125 4.421875 -0.3125 C 3.992188 -0.101562 3.5 0 2.9375 0 L 0.609375 0 Z M 2.890625 -0.984375 C 3.398438 -0.984375 3.804688 -1.125 4.109375 -1.40625 C 4.421875 -1.695312 4.578125 -2.085938 4.578125 -2.578125 C 4.578125 -3.066406 4.421875 -3.453125 4.109375 -3.734375 C 3.804688 -4.015625 3.398438 -4.15625 2.890625 -4.15625 L 1.796875 -4.15625 L 1.796875 -0.984375 Z M 2.890625 -0.984375 "/></g></g></g><g fill="#473c38" fill-opacity="1"><g transform="translate(225.867787, 121.956554)"><g/></g></g><g fill="#473c38" fill-opacity="1"><g transform="translate(229.753949, 121.956554)"><g><path d="M 8.375 -5.140625 L 6.703125 0 L 5.421875 0 L 4.28125 -3.484375 L 3.125 0 L 1.84375 0 L 0.15625 -5.140625 L 1.390625 -5.140625 L 2.5625 -1.53125 L 3.765625 -5.140625 L 4.875 -5.140625 L 6.046875 -1.5 L 7.234375 -5.140625 Z M 8.375 -5.140625 "/></g></g></g><g fill="#473c38" fill-opacity="1"><g transform="translate(240.104827, 121.956554)"><g><path d="M 3.09375 0.09375 C 2.5625 0.09375 2.082031 -0.0195312 1.65625 -0.25 C 1.226562 -0.488281 0.890625 -0.804688 0.640625 -1.203125 C 0.398438 -1.609375 0.28125 -2.066406 0.28125 -2.578125 C 0.28125 -3.078125 0.398438 -3.523438 0.640625 -3.921875 C 0.890625 -4.328125 1.226562 -4.644531 1.65625 -4.875 C 2.082031 -5.113281 2.5625 -5.234375 3.09375 -5.234375 C 3.632812 -5.234375 4.113281 -5.113281 4.53125 -4.875 C 4.957031 -4.644531 5.289062 -4.328125 5.53125 -3.921875 C 5.78125 -3.523438 5.90625 -3.078125 5.90625 -2.578125 C 5.90625 -2.066406 5.78125 -1.609375 5.53125 -1.203125 C 5.289062 -0.804688 4.957031 -0.488281 4.53125 -0.25 C 4.113281 -0.0195312 3.632812 0.09375 3.09375 0.09375 Z M 3.09375 -0.921875 C 3.394531 -0.921875 3.664062 -0.988281 3.90625 -1.125 C 4.15625 -1.269531 4.347656 -1.46875 4.484375 -1.71875 C 4.628906 -1.96875 4.703125 -2.253906 4.703125 -2.578125 C 4.703125 -2.890625 4.628906 -3.171875 4.484375 -3.421875 C 4.347656 -3.671875 4.15625 -3.863281 3.90625 -4 C 3.664062 -4.144531 3.394531 -4.21875 3.09375 -4.21875 C 2.789062 -4.21875 2.515625 -4.144531 2.265625 -4 C 2.023438 -3.863281 1.832031 -3.671875 1.6875 -3.421875 C 1.550781 -3.171875 1.484375 -2.890625 1.484375 -2.578125 C 1.484375 -2.253906 1.550781 -1.96875 1.6875 -1.71875 C 1.832031 -1.46875 2.023438 -1.269531 2.265625 -1.125 C 2.515625 -0.988281 2.789062 -0.921875 3.09375 -0.921875 Z M 3.09375 -0.921875 "/></g></g></g><g fill="#473c38" fill-opacity="1"><g transform="translate(248.112242, 121.956554)"><g><path d="M 3.890625 0 L 2.890625 -1.4375 L 1.796875 -1.4375 L 1.796875 0 L 0.609375 0 L 0.609375 -5.140625 L 2.828125 -5.140625 C 3.285156 -5.140625 3.679688 -5.0625 4.015625 -4.90625 C 4.359375 -4.757812 4.617188 -4.546875 4.796875 -4.265625 C 4.972656 -3.984375 5.0625 -3.65625 5.0625 -3.28125 C 5.0625 -2.894531 4.96875 -2.5625 4.78125 -2.28125 C 4.601562 -2.007812 4.347656 -1.800781 4.015625 -1.65625 L 5.15625 0 Z M 3.859375 -3.28125 C 3.859375 -3.5625 3.765625 -3.78125 3.578125 -3.9375 C 3.398438 -4.09375 3.128906 -4.171875 2.765625 -4.171875 L 1.796875 -4.171875 L 1.796875 -2.375 L 2.765625 -2.375 C 3.128906 -2.375 3.398438 -2.453125 3.578125 -2.609375 C 3.765625 -2.765625 3.859375 -2.988281 3.859375 -3.28125 Z M 3.859375 -3.28125 "/></g></g></g><g fill="#473c38" fill-opacity="1"><g transform="translate(255.318919, 121.956554)"><g><path d="M 2.484375 -2.015625 L 1.796875 -1.296875 L 1.796875 0 L 0.609375 0 L 0.609375 -5.140625 L 1.796875 -5.140625 L 1.796875 -2.734375 L 4.0625 -5.140625 L 5.390625 -5.140625 L 3.265625 -2.84375 L 5.515625 0 L 4.125 0 Z M 2.484375 -2.015625 "/></g></g></g><g fill="#473c38" fill-opacity="1"><g transform="translate(262.562327, 121.956554)"><g><path d="M 4.59375 -0.953125 L 4.59375 0 L 0.609375 0 L 0.609375 -5.140625 L 4.5 -5.140625 L 4.5 -4.1875 L 1.796875 -4.1875 L 1.796875 -3.0625 L 4.171875 -3.0625 L 4.171875 -2.140625 L 1.796875 -2.140625 L 1.796875 -0.953125 Z M 4.59375 -0.953125 "/></g></g></g><g fill="#473c38" fill-opacity="1"><g transform="translate(269.298843, 121.956554)"><g><path d="M 3.890625 0 L 2.890625 -1.4375 L 1.796875 -1.4375 L 1.796875 0 L 0.609375 0 L 0.609375 -5.140625 L 2.828125 -5.140625 C 3.285156 -5.140625 3.679688 -5.0625 4.015625 -4.90625 C 4.359375 -4.757812 4.617188 -4.546875 4.796875 -4.265625 C 4.972656 -3.984375 5.0625 -3.65625 5.0625 -3.28125 C 5.0625 -2.894531 4.96875 -2.5625 4.78125 -2.28125 C 4.601562 -2.007812 4.347656 -1.800781 4.015625 -1.65625 L 5.15625 0 Z M 3.859375 -3.28125 C 3.859375 -3.5625 3.765625 -3.78125 3.578125 -3.9375 C 3.398438 -4.09375 3.128906 -4.171875 2.765625 -4.171875 L 1.796875 -4.171875 L 1.796875 -2.375 L 2.765625 -2.375 C 3.128906 -2.375 3.398438 -2.453125 3.578125 -2.609375 C 3.765625 -2.765625 3.859375 -2.988281 3.859375 -3.28125 Z M 3.859375 -3.28125 "/></g></g></g><g fill="#473c38" fill-opacity="1"><g transform="translate(276.505521, 121.956554)"><g><path d="M 2.296875 0.09375 C 1.890625 0.09375 1.492188 0.0351562 1.109375 -0.078125 C 0.734375 -0.191406 0.429688 -0.332031 0.203125 -0.5 L 0.609375 -1.40625 C 0.828125 -1.238281 1.085938 -1.101562 1.390625 -1 C 1.691406 -0.90625 2 -0.859375 2.3125 -0.859375 C 2.644531 -0.859375 2.890625 -0.910156 3.046875 -1.015625 C 3.210938 -1.117188 3.296875 -1.253906 3.296875 -1.421875 C 3.296875 -1.535156 3.25 -1.632812 3.15625 -1.71875 C 3.0625 -1.800781 2.9375 -1.863281 2.78125 -1.90625 C 2.632812 -1.957031 2.4375 -2.015625 2.1875 -2.078125 C 1.789062 -2.171875 1.46875 -2.265625 1.21875 -2.359375 C 0.96875 -2.453125 0.753906 -2.597656 0.578125 -2.796875 C 0.398438 -3.003906 0.3125 -3.28125 0.3125 -3.625 C 0.3125 -3.925781 0.390625 -4.195312 0.546875 -4.4375 C 0.710938 -4.675781 0.957031 -4.867188 1.28125 -5.015625 C 1.601562 -5.160156 2 -5.234375 2.46875 -5.234375 C 2.800781 -5.234375 3.125 -5.191406 3.4375 -5.109375 C 3.75 -5.035156 4.023438 -4.925781 4.265625 -4.78125 L 3.890625 -3.875 C 3.421875 -4.144531 2.945312 -4.28125 2.46875 -4.28125 C 2.132812 -4.28125 1.882812 -4.222656 1.71875 -4.109375 C 1.5625 -4.003906 1.484375 -3.863281 1.484375 -3.6875 C 1.484375 -3.507812 1.578125 -3.378906 1.765625 -3.296875 C 1.953125 -3.210938 2.234375 -3.128906 2.609375 -3.046875 C 2.992188 -2.953125 3.3125 -2.859375 3.5625 -2.765625 C 3.8125 -2.671875 4.023438 -2.519531 4.203125 -2.3125 C 4.390625 -2.113281 4.484375 -1.84375 4.484375 -1.5 C 4.484375 -1.207031 4.398438 -0.941406 4.234375 -0.703125 C 4.066406 -0.460938 3.816406 -0.269531 3.484375 -0.125 C 3.160156 0.0195312 2.765625 0.09375 2.296875 0.09375 Z M 2.296875 0.09375 "/></g></g></g></svg>