<svg xmlns="http://www.w3.org/2000/svg" xmlns:xlink="http://www.w3.org/1999/xlink" width="500" zoomAndPan="magnify" viewBox="0 0 375 374.999991" height="500" preserveAspectRatio="xMidYMid meet" version="1.0"><defs><clipPath id="2351bf7a12"><path d="M 24.691406 30.589844 L 349 30.589844 L 349 344.089844 L 24.691406 344.089844 Z M 24.691406 30.589844 " clip-rule="nonzero"/></clipPath></defs><g clip-path="url(#2351bf7a12)"><path fill="#000000" d="M 310.882812 323.695312 C 310.882812 330.15625 305.625 335.414062 299.164062 335.414062 L 287.6875 335.414062 C 285.925781 334.394531 284.324219 333.421875 282.773438 332.480469 C 272.371094 326.152344 264.855469 321.578125 230.839844 316.074219 C 208.296875 312.425781 181.121094 313.363281 130.578125 319.558594 C 85.691406 325.0625 48.425781 325.371094 33.40625 322.847656 L 33.40625 316.28125 C 55.191406 315.515625 102.71875 312.628906 139.066406 301.828125 C 171.277344 292.261719 217.339844 301.878906 257.984375 310.371094 C 276.496094 314.238281 293.976562 317.890625 309.835938 319.828125 C 310.019531 319.855469 310.195312 319.863281 310.375 319.863281 C 310.550781 319.863281 310.71875 319.835938 310.882812 319.816406 Z M 45.125 335.414062 C 42.023438 335.414062 39.203125 334.191406 37.109375 332.210938 C 57.105469 334.351562 94.050781 332.890625 131.648438 328.285156 C 181.285156 322.203125 207.789062 321.242188 229.441406 324.75 C 252.675781 328.507812 262.769531 331.734375 270.160156 335.414062 Z M 33.40625 284.839844 C 33.40625 279.1875 37.421875 274.460938 42.757812 273.363281 C 43.535156 273.453125 44.324219 273.511719 45.125 273.511719 L 54.390625 273.511719 C 52.519531 274.945312 50.910156 276.554688 49.792969 278.339844 C 47.660156 281.761719 47.441406 285.601562 49.1875 289.152344 C 53.511719 297.976562 68.519531 299.363281 77.503906 299.363281 C 80.054688 299.363281 82.117188 299.246094 83.3125 299.160156 C 95.6875 299.871094 101.863281 293.75 102.496094 287.300781 C 103.070312 281.5 99.097656 276.382812 93.457031 275.652344 C 91.042969 275.34375 88.84375 277.035156 88.53125 279.445312 C 88.222656 281.851562 89.921875 284.054688 92.324219 284.363281 C 93.601562 284.53125 93.816406 285.796875 93.75 286.441406 C 93.535156 288.652344 90.277344 290.824219 83.585938 290.371094 C 83.378906 290.355469 83.167969 290.363281 82.957031 290.378906 C 70.542969 291.316406 58.914062 289.035156 57.078125 285.285156 C 56.675781 284.480469 56.710938 283.894531 57.199219 283.078125 C 60.152344 278.105469 74.042969 273.726562 77.011719 273.585938 C 77.257812 273.585938 77.492188 273.550781 77.722656 273.511719 L 134.09375 273.511719 C 147.800781 275.816406 205.632812 285.414062 235.574219 288.5 C 259.199219 290.9375 306.109375 293.183594 306.585938 293.207031 C 306.65625 293.210938 306.722656 293.210938 306.792969 293.210938 C 308.65625 293.210938 310.253906 292.039062 310.882812 290.367188 L 310.882812 311.101562 C 295.394531 309.207031 278.097656 305.597656 259.78125 301.769531 C 216.085938 292.644531 170.902344 283.203125 136.5625 293.40625 C 101.335938 303.871094 54.949219 306.714844 33.40625 307.488281 Z M 33.40625 237.328125 C 33.40625 230.867188 38.664062 225.609375 45.125 225.609375 L 164.488281 225.609375 C 163.691406 226.683594 163.113281 227.863281 162.871094 229.183594 C 162.164062 233.117188 164.296875 236.726562 169.222656 239.917969 C 176.289062 244.496094 203.492188 245.792969 232.179688 245.792969 C 263.398438 245.792969 296.378906 244.25 307.015625 243.707031 C 308.800781 243.613281 310.277344 242.46875 310.882812 240.902344 L 310.882812 253.003906 C 310.882812 259.464844 305.625 264.722656 299.164062 264.722656 L 134.820312 264.722656 C 133.453125 264.492188 132.660156 264.355469 132.59375 264.34375 C 131.660156 264.183594 130.75 264.339844 129.960938 264.722656 L 45.125 264.722656 C 38.664062 264.722656 33.40625 259.464844 33.40625 253.003906 Z M 40.804688 87.65625 C 40.804688 84.527344 43.351562 81.980469 46.480469 81.980469 C 47.476562 81.980469 48.398438 82.261719 49.210938 82.714844 L 52.15625 93.699219 L 52.15625 216.820312 L 45.125 216.820312 C 43.644531 216.820312 42.195312 216.984375 40.804688 217.289062 Z M 85.144531 216.820312 L 60.945312 216.820312 L 60.945312 131.527344 L 62.289062 131.527344 Z M 86.652344 51.410156 L 89 60.191406 L 79.015625 62.867188 C 76.667969 63.496094 75.277344 65.902344 75.90625 68.25 C 76.429688 70.210938 78.207031 71.503906 80.148438 71.503906 C 80.527344 71.503906 80.910156 71.460938 81.285156 71.355469 L 91.277344 68.679688 L 93.164062 75.703125 L 86.769531 77.421875 C 84.421875 78.050781 83.03125 80.460938 83.660156 82.800781 C 84.1875 84.769531 85.960938 86.0625 87.902344 86.0625 C 88.277344 86.0625 88.660156 86.007812 89.046875 85.90625 L 95.4375 84.195312 L 97.320312 91.226562 L 87.328125 93.90625 C 84.988281 94.535156 83.59375 96.945312 84.222656 99.285156 C 84.75 101.253906 86.523438 102.546875 88.46875 102.546875 C 88.839844 102.546875 89.222656 102.492188 89.605469 102.390625 L 99.589844 99.714844 L 101.480469 106.746094 L 95.085938 108.457031 C 92.742188 109.085938 91.351562 111.496094 91.980469 113.839844 C 92.507812 115.804688 94.28125 117.097656 96.21875 117.097656 C 96.597656 117.097656 96.980469 117.050781 97.359375 116.945312 L 103.75 115.234375 L 105.632812 122.261719 L 95.648438 124.941406 C 93.300781 125.570312 91.910156 127.980469 92.535156 130.320312 C 93.0625 132.285156 94.839844 133.582031 96.78125 133.582031 C 97.152344 133.582031 97.542969 133.535156 97.917969 133.429688 L 107.910156 130.753906 L 109.792969 137.78125 L 103.402344 139.496094 C 101.054688 140.125 99.671875 142.527344 100.292969 144.875 C 100.820312 146.84375 102.601562 148.136719 104.535156 148.136719 C 104.910156 148.136719 105.296875 148.085938 105.679688 147.980469 L 112.070312 146.269531 L 113.953125 153.304688 L 103.960938 155.976562 C 101.617188 156.605469 100.226562 159.011719 100.855469 161.359375 C 101.382812 163.320312 103.15625 164.621094 105.09375 164.621094 C 105.472656 164.621094 105.855469 164.570312 106.238281 164.464844 L 116.230469 161.789062 L 118.113281 168.820312 L 111.71875 170.53125 C 109.375 171.160156 107.984375 173.570312 108.613281 175.914062 C 109.132812 177.878906 110.914062 179.171875 112.851562 179.171875 C 113.230469 179.171875 113.613281 179.125 113.992188 179.023438 L 120.382812 177.3125 L 122.269531 184.335938 L 112.28125 187.015625 C 109.933594 187.644531 108.546875 190.054688 109.175781 192.394531 C 109.695312 194.363281 111.472656 195.65625 113.414062 195.65625 C 113.785156 195.65625 114.167969 195.609375 114.554688 195.5 L 124.542969 192.828125 L 126.425781 199.855469 L 120.035156 201.570312 C 117.695312 202.199219 116.296875 204.609375 116.925781 206.949219 C 117.453125 208.917969 119.234375 210.210938 121.171875 210.210938 C 121.542969 210.210938 121.929688 210.160156 122.3125 210.058594 L 128.703125 208.347656 L 130.585938 215.378906 L 125.191406 216.820312 L 94.246094 216.820312 L 87.78125 192.714844 L 96.445312 190.390625 C 98.785156 189.769531 100.175781 187.359375 99.550781 185.011719 C 98.921875 182.667969 96.511719 181.269531 94.167969 181.90625 L 85.507812 184.222656 L 77.523438 154.429688 L 86.183594 152.105469 C 88.523438 151.484375 89.914062 149.074219 89.292969 146.730469 C 88.660156 144.382812 86.253906 142.992188 83.90625 143.621094 L 75.25 145.9375 L 67.269531 116.144531 L 75.925781 113.824219 C 78.269531 113.195312 79.660156 110.789062 79.03125 108.445312 C 78.402344 106.097656 75.992188 104.703125 73.652344 105.335938 L 64.992188 107.65625 L 57.007812 77.863281 L 65.667969 75.539062 C 68.011719 74.910156 69.402344 72.507812 68.773438 70.160156 C 68.144531 67.816406 65.734375 66.417969 63.394531 67.054688 L 54.730469 69.371094 L 52.378906 60.59375 Z M 136.988281 107.359375 L 136.988281 122.738281 L 114.863281 122.738281 L 110.742188 107.359375 Z M 146.554688 197.808594 L 145.988281 203.304688 C 145.246094 204.09375 144.78125 205.148438 144.78125 206.316406 L 144.78125 216.820312 L 140.070312 216.820312 L 137.421875 206.933594 Z M 137 154.625 C 137.003906 154.832031 137.027344 155.023438 137.054688 155.21875 C 137.074219 155.292969 137.078125 155.367188 137.097656 155.449219 C 137.152344 155.695312 137.222656 155.933594 137.320312 156.167969 C 137.34375 156.222656 137.375 156.273438 137.398438 156.324219 C 137.484375 156.507812 137.578125 156.683594 137.6875 156.855469 C 137.730469 156.929688 137.78125 156.992188 137.835938 157.066406 C 137.9375 157.210938 138.050781 157.34375 138.171875 157.472656 C 138.230469 157.535156 138.292969 157.601562 138.347656 157.664062 C 138.390625 157.699219 138.414062 157.730469 138.453125 157.765625 L 147.019531 165.425781 C 148.933594 167.144531 149.769531 169.765625 149.203125 172.269531 C 149.164062 172.441406 149.136719 172.621094 149.117188 172.796875 L 147.972656 183.953125 L 134.796875 197.132812 L 117.21875 131.527344 L 136.988281 131.527344 L 136.988281 154.488281 C 136.988281 154.539062 137 154.578125 137 154.625 Z M 145.777344 46.78125 L 150.855469 52.960938 L 150.855469 150.09375 L 145.777344 150.09375 Z M 174.929688 39.492188 L 168.9375 46.769531 L 157.144531 46.769531 L 151.15625 39.492188 Z M 175.226562 52.960938 L 180.308594 46.78125 L 180.308594 150.09375 L 175.226562 150.09375 Z M 187.628906 157.765625 C 187.664062 157.730469 187.699219 157.699219 187.734375 157.664062 C 187.796875 157.601562 187.855469 157.535156 187.910156 157.472656 C 188.03125 157.34375 188.144531 157.210938 188.25 157.066406 C 188.300781 156.992188 188.351562 156.929688 188.398438 156.855469 C 188.507812 156.683594 188.601562 156.507812 188.683594 156.324219 C 188.707031 156.273438 188.734375 156.222656 188.757812 156.167969 C 188.859375 155.933594 188.929688 155.695312 188.988281 155.449219 C 188.992188 155.410156 189.003906 155.378906 189.007812 155.34375 L 199.761719 144.59375 L 243.6875 188.527344 C 244.390625 189.222656 245.304688 189.671875 246.289062 189.777344 L 273.46875 192.910156 C 273.320312 193.160156 273.1875 193.425781 273.085938 193.703125 L 270.203125 201.875 L 261.578125 201.003906 C 259.566406 200.789062 257.664062 202 256.988281 203.910156 L 254.105469 212.082031 L 245.488281 211.210938 C 243.46875 211.011719 241.582031 212.207031 240.90625 214.121094 L 239.949219 216.820312 L 181.300781 216.820312 L 181.300781 206.316406 C 181.300781 205.148438 180.839844 204.09375 180.09375 203.304688 L 176.964844 172.796875 C 176.949219 172.621094 176.917969 172.441406 176.878906 172.269531 C 176.3125 169.765625 177.148438 167.144531 179.066406 165.425781 Z M 189.09375 131.527344 L 200.402344 131.527344 L 189.09375 142.832031 Z M 189.09375 107.359375 L 224.570312 107.359375 L 209.191406 122.738281 L 189.09375 122.738281 Z M 303.492188 217.289062 C 302.09375 216.984375 300.652344 216.820312 299.164062 216.820312 L 292.136719 216.820312 L 292.136719 199.71875 C 292.710938 199.226562 293.164062 198.597656 293.425781 197.847656 L 294.324219 195.3125 L 301.523438 196.136719 C 301.6875 196.160156 301.855469 196.171875 302.019531 196.171875 C 302.527344 196.171875 303.019531 196.066406 303.492188 195.902344 Z M 261.757812 216.820312 L 264.128906 210.097656 L 272.753906 210.964844 C 274.75 211.179688 276.660156 209.964844 277.335938 208.058594 L 280.226562 199.882812 L 283.351562 200.199219 L 283.351562 216.820312 Z M 153.570312 210.710938 L 172.515625 210.710938 L 172.515625 216.820312 L 153.570312 216.820312 Z M 159.644531 150.09375 L 159.644531 55.703125 L 166.4375 55.703125 L 166.4375 150.09375 Z M 170.832031 158.882812 L 173.199219 158.882812 C 168.976562 162.664062 167.09375 168.410156 168.246094 173.9375 L 171.117188 201.921875 L 154.964844 201.921875 L 157.835938 173.9375 C 158.988281 168.410156 157.105469 162.664062 152.882812 158.882812 Z M 310.882812 237.761719 C 310.230469 236.027344 308.542969 234.828125 306.570312 234.929688 C 260.386719 237.292969 183.558594 238.730469 174 232.542969 C 172.578125 231.617188 171.949219 230.953125 171.683594 230.605469 C 172.925781 229.121094 178.085938 226.90625 182.894531 225.84375 C 183.140625 225.785156 183.367188 225.699219 183.601562 225.609375 L 299.164062 225.609375 C 305.625 225.609375 310.882812 230.867188 310.882812 237.328125 Z M 310.882812 287.230469 C 310.277344 285.660156 308.789062 284.515625 307.003906 284.429688 C 306.527344 284.40625 259.863281 282.171875 236.472656 279.757812 C 224.054688 278.476562 206.746094 276.058594 189.820312 273.511719 L 299.164062 273.511719 C 299.972656 273.511719 300.753906 273.453125 301.539062 273.363281 C 306.867188 274.460938 310.882812 279.1875 310.882812 284.839844 Z M 255.726562 88.636719 C 257.011719 87.34375 258.730469 86.632812 260.554688 86.632812 C 262.378906 86.632812 264.097656 87.347656 265.390625 88.636719 C 266.675781 89.929688 267.386719 91.640625 267.386719 93.472656 C 267.386719 95.296875 266.675781 97.007812 265.390625 98.300781 L 261.679688 102.007812 C 260.738281 102.953125 260.269531 104.277344 260.421875 105.605469 C 260.570312 106.941406 261.320312 108.125 262.460938 108.839844 L 319.117188 144.308594 C 320.855469 145.394531 323.109375 145.144531 324.558594 143.691406 L 328.257812 139.988281 C 330.925781 137.320312 335.261719 137.328125 337.921875 139.988281 C 340.589844 142.65625 340.589844 146.992188 337.921875 149.660156 L 300.417969 187.164062 L 248.820312 181.226562 L 205.976562 138.378906 Z M 283.351562 107.359375 L 283.351562 111.550781 L 276.65625 107.359375 Z M 292.136719 87.65625 C 292.136719 84.527344 294.683594 81.980469 297.8125 81.980469 C 300.945312 81.980469 303.492188 84.527344 303.492188 87.65625 L 303.492188 124.15625 L 292.136719 117.050781 Z M 344.144531 155.871094 C 350.230469 149.777344 350.230469 139.867188 344.144531 133.773438 C 344.136719 133.773438 344.136719 133.773438 344.136719 133.773438 C 338.050781 127.6875 328.140625 127.6875 322.046875 133.773438 L 320.816406 135.003906 L 312.277344 129.660156 L 312.277344 87.65625 C 312.277344 79.679688 305.789062 73.191406 297.8125 73.191406 C 289.839844 73.191406 283.351562 79.679688 283.351562 87.65625 L 283.351562 98.570312 L 275.3125 98.570312 C 275.871094 96.949219 276.175781 95.234375 276.175781 93.472656 C 276.175781 89.292969 274.550781 85.375 271.601562 82.421875 C 268.652344 79.46875 264.726562 77.84375 260.554688 77.84375 C 256.378906 77.84375 252.457031 79.46875 249.503906 82.421875 L 233.359375 98.570312 L 189.09375 98.570312 L 189.09375 35.097656 C 189.09375 32.671875 187.132812 30.703125 184.703125 30.703125 L 141.382812 30.703125 C 138.949219 30.703125 136.988281 32.671875 136.988281 35.097656 L 136.988281 98.570312 L 108.382812 98.570312 L 94 44.894531 C 93.375 42.546875 90.960938 41.152344 88.621094 41.785156 L 45.863281 53.242188 C 44.734375 53.542969 43.773438 54.277344 43.195312 55.289062 C 42.613281 56.296875 42.453125 57.5 42.757812 58.621094 L 46.664062 73.203125 C 46.601562 73.203125 46.542969 73.191406 46.480469 73.191406 C 38.503906 73.191406 32.015625 79.679688 32.015625 87.65625 L 32.015625 221.582031 C 27.503906 225.34375 24.617188 231.003906 24.617188 237.328125 L 24.617188 253.003906 C 24.617188 259.328125 27.503906 264.992188 32.015625 268.75 L 32.015625 269.089844 C 27.503906 272.851562 24.617188 278.511719 24.617188 284.839844 L 24.617188 323.695312 C 24.617188 335.003906 33.820312 344.203125 45.125 344.203125 L 286.503906 344.203125 C 286.503906 344.203125 286.507812 344.203125 286.507812 344.203125 C 286.515625 344.203125 286.519531 344.203125 286.519531 344.203125 L 299.164062 344.203125 C 310.476562 344.203125 319.671875 335.003906 319.671875 323.695312 L 319.671875 284.839844 C 319.671875 278.511719 316.792969 272.851562 312.277344 269.089844 L 312.277344 268.75 C 316.792969 264.992188 319.671875 259.328125 319.671875 253.003906 L 319.671875 237.328125 C 319.671875 231.003906 316.792969 225.34375 312.277344 221.582031 L 312.277344 187.730469 L 344.144531 155.871094 " fill-opacity="1" fill-rule="nonzero"/></g><path fill="#000000" d="M 247.765625 131.527344 L 257.660156 131.527344 L 283.351562 147.457031 L 283.351562 169.296875 L 282.566406 170.074219 L 237.289062 142.003906 Z M 296.835938 155.816406 L 292.136719 160.507812 L 292.136719 152.902344 Z M 225.898438 143.324219 C 226.046875 144.65625 226.808594 145.847656 227.945312 146.550781 L 280.894531 179.382812 C 281.617188 179.824219 282.417969 180.039062 283.210938 180.039062 C 284.351562 180.039062 285.472656 179.601562 286.320312 178.753906 L 306.96875 158.105469 C 307.917969 157.160156 308.382812 155.828125 308.226562 154.492188 C 308.074219 153.160156 307.316406 151.96875 306.179688 151.261719 L 253.226562 118.433594 C 251.484375 117.359375 249.242188 117.621094 247.800781 119.0625 L 227.152344 139.714844 C 226.207031 140.65625 225.742188 141.992188 225.898438 143.324219 " fill-opacity="1" fill-rule="nonzero"/><path fill="#000000" d="M 51.128906 247.996094 C 51.601562 247.964844 99.449219 244.609375 137.367188 252.128906 C 175.5 259.691406 212.257812 260.710938 243.175781 260.710938 C 245.609375 260.710938 247.570312 258.742188 247.570312 256.316406 C 247.570312 253.886719 245.609375 251.921875 243.175781 251.921875 C 212.679688 251.921875 176.46875 250.921875 139.070312 243.507812 C 99.972656 235.753906 52.488281 239.089844 50.488281 239.230469 C 48.066406 239.410156 46.246094 241.515625 46.425781 243.933594 C 46.601562 246.355469 48.71875 248.15625 51.128906 247.996094 " fill-opacity="1" fill-rule="nonzero"/></svg>