<svg xmlns="http://www.w3.org/2000/svg" xmlns:xlink="http://www.w3.org/1999/xlink" width="500" zoomAndPan="magnify" viewBox="0 0 375 374.999991" height="500" preserveAspectRatio="xMidYMid meet" version="1.0"><defs><clipPath id="a0349d3bbf"><path d="M 0 0 L 375 0 L 375 368.765625 L 0 368.765625 Z M 0 0 " clip-rule="nonzero"/></clipPath></defs><g clip-path="url(#a0349d3bbf)"><path fill="#000000" d="M 375 247.757812 C 368.789062 253.882812 361.824219 257.898438 352.851562 257.578125 C 348.613281 257.417969 344.363281 257.890625 340.109375 258.027344 C 330.046875 258.332031 315.578125 262.472656 310.140625 266.714844 C 326.210938 270.851562 340.949219 277.058594 351.503906 290.921875 C 341.289062 285.84375 331.410156 280.933594 321.539062 276.023438 C 320.617188 277.398438 320.894531 276.976562 319.972656 278.347656 C 323.617188 281.570312 327.261719 284.796875 331.621094 288.65625 C 328.914062 287.34375 326.878906 286.476562 324.960938 285.402344 C 318.628906 281.863281 312.742188 276.738281 305.96875 274.953125 C 285.464844 269.546875 264.628906 265.378906 243.878906 260.941406 C 242.835938 260.71875 240.472656 262.292969 240.253906 263.347656 C 238.574219 271.292969 241.507812 284.351562 250.746094 288.417969 C 260.453125 292.679688 269.714844 297.988281 279.039062 303.070312 C 281.761719 304.554688 284.046875 306.855469 286.53125 308.785156 C 286.320312 309.007812 286.101562 309.234375 285.890625 309.457031 L 263.675781 299.097656 C 263.191406 299.832031 263.324219 299.628906 262.835938 300.359375 C 265.539062 302.792969 268.261719 305.199219 270.929688 307.667969 C 273.789062 310.3125 276.683594 312.929688 279.414062 315.710938 C 284.535156 320.941406 286.949219 329.578125 285.179688 335.761719 C 271.289062 312.703125 271.289062 312.703125 257.714844 304.726562 C 237.335938 292.75 236.136719 291.46875 228.914062 269.75 C 228.472656 268.417969 227.761719 266.21875 227.4375 264.855469 C 225.097656 254.996094 212.683594 241.820312 203.925781 236.835938 C 203.96875 257.914062 207.40625 278.230469 220.679688 296.570312 C 230.738281 310.460938 243.113281 320.980469 259.140625 326.984375 C 261.34375 327.808594 264.308594 327.203125 266.761719 326.59375 C 269.0625 326.015625 271.140625 324.570312 273.945312 324.488281 C 270.308594 326.945312 266.671875 329.40625 262.933594 331.933594 C 265.132812 334.480469 267.523438 337.238281 270.074219 340.191406 C 269.25 340.410156 268.808594 340.648438 268.695312 340.546875 C 260.859375 332.953125 251.878906 327.320312 241.65625 323.289062 C 236.84375 321.386719 232.753906 317.628906 227.902344 314.429688 C 227.09375 327.035156 231.480469 340.539062 221.460938 351.210938 C 226.515625 342.652344 226.816406 333.4375 225.375 323.152344 C 222 329.332031 219 334.824219 215.992188 340.328125 C 215.339844 340.050781 214.679688 339.78125 214.027344 339.503906 C 220.679688 331.984375 221.773438 323.160156 220.785156 313.917969 C 219.742188 304.179688 211.230469 299.152344 206.820312 290.296875 C 203.363281 300.386719 200.355469 309.171875 197.339844 317.957031 C 197.0625 317.800781 196.777344 317.644531 196.5 317.488281 C 197.691406 303.582031 199.816406 289.683594 199.816406 275.777344 C 199.816406 261.828125 199.441406 247.644531 195.328125 234.074219 C 194.796875 234.046875 194.257812 234.015625 193.726562 233.976562 C 193.246094 236.300781 192.546875 238.597656 192.316406 240.941406 C 190.679688 257.765625 184.835938 272.765625 174.195312 286.070312 C 160.792969 302.816406 155.226562 322.5625 153.375 343.597656 C 152.984375 347.988281 152.183594 352.367188 151.191406 356.667969 C 149.953125 362.050781 146.910156 366.183594 141.554688 368.761719 C 144.316406 360.101562 146.960938 351.820312 149.601562 343.535156 C 149.332031 343.429688 149.0625 343.332031 148.792969 343.230469 C 142.3125 349.765625 135.839844 356.308594 129.359375 362.847656 C 128.761719 362.359375 128.167969 361.871094 127.566406 361.386719 C 144.015625 348.101562 147.277344 328.753906 152.863281 309.617188 C 138.554688 315.996094 125.09375 322 111.628906 327.996094 C 111.398438 327.847656 111.164062 327.695312 110.933594 327.546875 C 115.636719 323.640625 120.089844 319.367188 125.113281 315.925781 C 129.613281 312.847656 134.550781 310.179688 139.640625 308.222656 C 151.867188 303.515625 157.164062 293.527344 161.191406 281.480469 C 155.835938 280.371094 150.703125 279.308594 145.566406 278.242188 C 145.613281 277.792969 145.65625 277.335938 145.703125 276.886719 C 147.511719 276.847656 149.316406 276.804688 151.125 276.765625 C 166.238281 276.429688 176.03125 269.03125 180.523438 254.714844 C 182.84375 247.320312 184.703125 239.96875 182.585938 232.261719 C 179.339844 232.777344 176.210938 233.972656 173.332031 235.640625 C 173.03125 235.816406 172.726562 235.980469 172.410156 236.121094 C 172.171875 236.234375 171.929688 236.355469 171.683594 236.480469 C 162.898438 241.191406 149.960938 254.765625 147.5625 264.847656 C 147.238281 266.210938 146.527344 268.410156 146.085938 269.742188 C 138.863281 291.460938 137.671875 292.734375 117.285156 304.71875 C 103.71875 312.695312 103.71875 312.695312 89.820312 335.753906 C 88.050781 329.578125 90.464844 320.941406 95.585938 315.703125 C 98.308594 312.921875 101.203125 310.304688 104.070312 307.660156 C 106.738281 305.191406 109.460938 302.785156 112.164062 300.351562 C 111.675781 299.617188 111.808594 299.816406 111.324219 299.089844 L 89.109375 309.449219 C 88.898438 309.226562 88.679688 309 88.46875 308.777344 C 90.953125 306.847656 93.238281 304.546875 95.960938 303.0625 C 105.285156 297.972656 114.546875 292.675781 124.253906 288.410156 C 133.492188 284.347656 136.425781 271.289062 134.746094 263.339844 C 134.519531 262.285156 132.15625 260.71875 131.121094 260.933594 C 110.371094 265.371094 89.535156 269.539062 69.03125 274.945312 C 62.25 276.730469 56.363281 281.855469 50.039062 285.394531 C 48.121094 286.46875 46.085938 287.328125 43.378906 288.648438 C 47.746094 284.789062 51.390625 281.566406 55.027344 278.339844 C 54.105469 276.96875 54.382812 277.390625 53.460938 276.015625 C 43.582031 280.925781 33.710938 285.835938 23.496094 290.914062 C 34.058594 277.050781 48.789062 270.84375 64.859375 266.707031 C 59.414062 262.464844 44.949219 258.328125 34.890625 258.019531 C 30.644531 257.890625 26.386719 257.417969 22.148438 257.570312 C 13.183594 257.890625 6.21875 253.882812 0 247.75 C 8.242188 250.019531 16.066406 254.421875 25.777344 253.175781 C 24.515625 250.996094 23.4375 249.128906 22.402344 247.34375 C 27.960938 249.570312 33.472656 251.917969 39.113281 253.917969 C 42.425781 255.09375 46.09375 255.3125 49.402344 256.503906 C 69.644531 263.785156 90.007812 259.894531 110.355469 257.3125 C 111.914062 257.121094 113.371094 256.070312 115.078125 254.449219 C 104.871094 250.042969 93.210938 248.625 86.542969 237.292969 C 89.753906 238.886719 92.527344 239.90625 94.914062 241.519531 C 114.015625 254.40625 138.238281 248.421875 150.824219 230.605469 L 150.953125 230.417969 C 158.859375 219.1875 158.421875 204.054688 149.820312 193.347656 C 126.628906 164.496094 104.671875 162.179688 65.640625 122.230469 C 13.164062 68.507812 33.226562 4.488281 33.226562 4.488281 C 36.609375 -6.890625 40.453125 4.96875 50.992188 47.644531 C 61.53125 90.320312 108.328125 101.488281 108.328125 101.488281 C 108.328125 101.488281 83.496094 73.078125 79.648438 65.964844 C 75.800781 58.859375 81.324219 46.308594 148.800781 107.957031 C 178.816406 135.386719 187.320312 163.617188 187.507812 186.511719 C 187.695312 163.617188 196.199219 135.386719 226.214844 107.957031 C 293.691406 46.300781 299.210938 58.851562 295.363281 65.964844 C 291.515625 73.070312 266.683594 101.488281 266.683594 101.488281 C 266.683594 101.488281 313.484375 90.328125 324.023438 47.644531 C 334.546875 4.96875 338.390625 -6.882812 341.773438 4.488281 C 341.773438 4.488281 361.835938 68.507812 309.34375 122.238281 C 270.324219 162.1875 248.363281 164.503906 225.164062 193.355469 C 216.5625 204.0625 216.128906 219.195312 224.03125 230.425781 L 224.160156 230.613281 C 236.746094 248.429688 260.96875 254.414062 280.074219 241.527344 C 282.457031 239.914062 285.238281 238.894531 288.441406 237.300781 C 281.773438 248.632812 270.113281 250.050781 259.90625 254.457031 C 261.613281 256.078125 263.070312 257.121094 264.628906 257.320312 C 284.976562 259.902344 305.339844 263.792969 325.582031 256.511719 C 328.898438 255.320312 332.558594 255.101562 335.871094 253.925781 C 341.511719 251.925781 347.023438 249.585938 352.582031 247.351562 C 351.546875 249.144531 350.476562 251.003906 349.207031 253.183594 C 358.933594 254.429688 366.757812 250.027344 375 247.757812 Z M 375 247.757812 " fill-opacity="1" fill-rule="nonzero"/></g></svg>