<svg xmlns="http://www.w3.org/2000/svg" xmlns:xlink="http://www.w3.org/1999/xlink" width="500" zoomAndPan="magnify" viewBox="0 0 375 374.999991" height="500" preserveAspectRatio="xMidYMid meet" version="1.0"><defs><clipPath id="5c902f9e8e"><path d="M 33.933594 34 L 341.433594 34 L 341.433594 341.433594 L 33.933594 341.433594 Z M 33.933594 34 " clip-rule="nonzero"/></clipPath></defs><g clip-path="url(#5c902f9e8e)"><path fill="#000000" d="M 340.925781 52.414062 C 340.386719 57.351562 337.671875 61.714844 333.476562 64.378906 L 297.757812 87.113281 C 296.289062 88.046875 294.925781 89.140625 293.699219 90.367188 L 284.046875 100.011719 C 279.542969 104.523438 277.070312 110.507812 277.070312 116.875 C 277.070312 122.792969 273.050781 127.925781 267.316406 129.359375 L 262.296875 130.621094 L 244.75 113.070312 L 246.011719 108.054688 C 247.441406 102.316406 252.578125 98.300781 258.492188 98.300781 C 264.859375 98.300781 270.84375 95.824219 275.355469 91.320312 L 285 81.671875 C 286.226562 80.441406 287.324219 79.078125 288.253906 77.613281 L 310.984375 41.890625 C 313.652344 37.699219 318.019531 34.984375 322.953125 34.445312 C 327.890625 33.902344 332.734375 35.605469 336.253906 39.117188 C 339.761719 42.628906 341.460938 47.476562 340.925781 52.414062 Z M 244.167969 145.382812 L 229.984375 131.203125 L 238.683594 122.507812 L 252.859375 136.683594 Z M 218.933594 165.207031 C 217.558594 166.242188 216.746094 167.867188 216.746094 169.585938 L 216.746094 194.738281 L 180.78125 230.703125 C 179.828125 228.167969 178.347656 225.835938 176.375 223.863281 L 145.878906 193.371094 L 180.628906 158.621094 L 205.78125 158.621094 C 207.5 158.621094 209.125 157.8125 210.160156 156.433594 L 222.820312 139.550781 L 235.816406 152.546875 Z M 323.140625 220.792969 L 278.277344 270.144531 L 165.542969 270.144531 L 165.542969 264.460938 C 172 263.539062 177.429688 259.382812 180.136719 253.695312 L 201.660156 253.695312 C 208.125 253.695312 214.203125 251.179688 218.777344 246.605469 C 221.273438 244.105469 224.601562 242.726562 228.132812 242.726562 L 269.734375 242.726562 L 269.734375 231.757812 L 228.132812 231.757812 C 221.667969 231.757812 215.589844 234.273438 211.015625 238.847656 C 208.523438 241.347656 205.191406 242.726562 201.660156 242.726562 L 184.265625 242.726562 L 206.199219 220.792969 Z M 330.054688 279.132812 L 307.792969 305.851562 C 304.460938 302.027344 302.636719 297.195312 302.636719 292.078125 L 291.667969 292.078125 C 291.667969 300.464844 294.878906 308.347656 300.710938 314.34375 L 286.1875 331.769531 L 286.1875 277.746094 L 293.945312 269.214844 L 296.488281 271.75 C 302.527344 277.789062 310.554688 281.113281 319.089844 281.113281 L 319.089844 270.144531 C 313.480469 270.144531 308.210938 267.957031 304.242188 263.996094 L 301.335938 261.089844 L 330.054688 229.488281 Z M 275.21875 303.046875 L 270.398438 303.046875 C 261.433594 303.046875 253.003906 306.535156 246.660156 312.878906 C 242.398438 317.148438 236.722656 319.5 230.683594 319.5 L 192.960938 319.5 L 192.960938 330.464844 L 230.683594 330.464844 C 239.648438 330.464844 248.082031 326.976562 254.421875 320.636719 C 258.683594 316.367188 264.359375 314.015625 270.398438 314.015625 L 275.21875 314.015625 L 275.21875 341.433594 L 33.933594 341.433594 L 33.933594 330.464844 L 144.546875 330.464844 C 156.015625 330.464844 166.796875 325.996094 174.90625 317.894531 C 180.9375 311.855469 188.964844 308.53125 197.507812 308.53125 L 231.347656 308.53125 L 231.347656 297.5625 L 197.507812 297.5625 C 186.039062 297.5625 175.257812 302.03125 167.148438 310.136719 C 161.117188 316.175781 153.089844 319.5 144.546875 319.5 L 33.933594 319.5 L 33.933594 308.53125 L 88.773438 308.53125 L 88.773438 297.5625 L 33.933594 297.5625 L 33.933594 286.597656 L 99.074219 286.597656 C 105.113281 286.597656 110.789062 288.949219 115.050781 293.21875 C 121.394531 299.558594 129.824219 303.046875 138.789062 303.046875 L 154.578125 303.046875 L 154.578125 292.078125 L 138.789062 292.078125 C 132.75 292.078125 127.074219 289.730469 122.8125 285.457031 C 116.472656 279.117188 108.039062 275.628906 99.074219 275.628906 L 33.933594 275.628906 L 33.933594 264.660156 L 154.578125 264.660156 L 154.578125 275.628906 C 154.578125 278.660156 157.03125 281.113281 160.058594 281.113281 L 275.21875 281.113281 Z M 33.933594 231.757812 L 61.351562 231.757812 L 61.351562 220.792969 L 33.933594 220.792969 L 33.933594 209.824219 L 107.964844 209.824219 C 111.207031 209.824219 114.324219 209.023438 117.09375 207.519531 L 145.210938 235.640625 C 146.242188 236.667969 147.640625 237.242188 149.09375 237.242188 L 162.800781 237.242188 C 167.339844 237.242188 171.027344 240.929688 171.027344 245.46875 C 171.027344 250.007812 167.339844 253.695312 162.800781 253.695312 L 33.933594 253.695312 Z M 107.492188 182.40625 L 115.992188 182.40625 C 118.191406 182.40625 120.253906 183.261719 121.8125 184.820312 L 163.28125 226.28125 C 163.117188 226.273438 162.960938 226.273438 162.800781 226.273438 L 151.363281 226.273438 L 107.492188 182.40625 " fill-opacity="1" fill-rule="nonzero"/></g></svg>