<svg xmlns="http://www.w3.org/2000/svg" xmlns:xlink="http://www.w3.org/1999/xlink" width="500" zoomAndPan="magnify" viewBox="0 0 375 374.999991" height="500" preserveAspectRatio="xMidYMid meet" version="1.0"><defs><clipPath id="7fe34179ef"><path d="M 0.714844 37.726562 L 375 37.726562 L 375 334.21875 L 0.714844 334.21875 Z M 0.714844 37.726562 " clip-rule="nonzero"/></clipPath></defs><g clip-path="url(#7fe34179ef)"><path fill="#473c38" d="M 208.957031 212.308594 L 227.609375 205.222656 L 246.316406 196.132812 L 310.328125 140.265625 L 363 97.988281 L 374.144531 74.304688 L 340.707031 37.726562 L 314.828125 37.726562 L 262.878906 91.984375 L 222.160156 126.253906 L 222.050781 126.117188 L 221.242188 127.007812 L 197.007812 153.578125 L 190.113281 166.667969 L 181.328125 183.402344 L 126.046875 235.378906 C 126.15625 232.347656 125.960938 229.597656 125.574219 227.152344 C 122.902344 209.445312 109.785156 193.9375 86.574219 181.09375 C 69.703125 171.785156 55.554688 167.226562 43.328125 167.226562 C 33.960938 167.226562 25.898438 169.921875 19.367188 175.230469 C 3.300781 188.210938 3.273438 212.613281 7 224.957031 C 11.890625 241.078125 21.617188 247.054688 28.929688 249.25 C 31.765625 250.082031 34.738281 250.5 37.824219 250.5 C 54.082031 250.5 68.898438 238.855469 71.734375 236.492188 C 74.652344 234.074219 76.429688 230.625 76.792969 226.847656 C 77.125 223.066406 75.957031 219.371094 73.539062 216.449219 C 70.816406 213.199219 66.839844 211.335938 62.617188 211.335938 C 59.253906 211.335938 56 212.53125 53.554688 214.617188 C 49.859375 217.617188 42.355469 222.066406 37.933594 222.066406 C 37.460938 222.066406 37.183594 222.007812 37.042969 221.980469 C 36.792969 221.898438 35.460938 220.703125 34.238281 216.699219 C 32.402344 210.585938 33.429688 200.46875 37.265625 197.355469 C 38.574219 196.269531 40.628906 195.742188 43.355469 195.742188 C 48.328125 195.742188 57.445312 197.523438 72.789062 206.027344 C 87.660156 214.226562 96.164062 223.011719 97.445312 231.40625 C 98.777344 240.160156 92.191406 249 87.714844 254.058594 L 0.714844 254.058594 L 0.714844 334.21875 L 371.449219 334.21875 L 371.449219 273.265625 L 142.304688 273.265625 Z M 270.691406 100.292969 L 319.695312 49.125 L 335.703125 49.125 L 360.582031 76.363281 L 353.824219 90.761719 L 302.792969 131.730469 L 255.988281 177.316406 L 223.660156 139.875 Z M 222.023438 143.070312 L 252.511719 176.84375 L 231.722656 193.101562 L 203.175781 163.722656 Z M 360.050781 284.632812 L 360.050781 322.824219 L 12.113281 322.824219 L 12.113281 265.425781 L 92.691406 265.425781 C 92.828125 265.257812 92.996094 265.09375 93.191406 264.898438 C 97.636719 260.253906 111.203125 246.164062 108.730469 229.707031 C 106.867188 217.507812 96.636719 206.167969 78.320312 196.050781 C 55.972656 183.679688 39.296875 181.066406 30.125 188.488281 C 21.175781 195.742188 20.8125 211.585938 23.371094 220.007812 C 25.511719 227.125 29.039062 231.460938 33.792969 232.878906 C 45.105469 236.296875 60.644531 223.511719 60.78125 223.398438 C 62.003906 222.371094 63.785156 222.539062 64.8125 223.761719 C 65.8125 224.957031 65.644531 226.761719 64.449219 227.761719 C 63.726562 228.375 46.46875 242.550781 32.179688 238.324219 C 25.453125 236.324219 20.671875 230.710938 17.921875 221.648438 C 14.808594 211.449219 15.449219 193.046875 26.539062 184.070312 C 37.796875 174.925781 56.167969 177.289062 81.074219 191.074219 C 101.027344 202.109375 112.230469 214.8125 114.34375 228.847656 C 116.761719 244.886719 106.726562 258.394531 100.472656 265.425781 L 110.757812 265.425781 L 190.53125 190.378906 L 202.066406 168.449219 L 227.164062 193.242188 L 202.898438 202.441406 L 112.980469 284.632812 Z M 360.050781 284.632812 " fill-opacity="1" fill-rule="nonzero"/></g></svg>